0
SECTION
2
HEADER
9
$INSUNITS
70
4
9
$ACADVER
1
AC1014
9
$HANDSEED
5
FFFF
0
ENDSEC
0
SECTION
2
TABLES
0
TABLE
2
VPORT
5
8
100
AcDbSymbolTable
0
ENDTAB
0
TABLE
2
LTYPE
5
5
100
AcDbSymbolTable
0
LTYPE
5
14
100
AcDbSymbolTableRecord
100
AcDbLinetypeTableRecord
2
BYBLOCK
70
0
0
LTYPE
5
15
100
AcDbSymbolTableRecord
100
AcDbLinetypeTableRecord
2
BYLAYER
70
0
0
ENDTAB
0
TABLE
2
LAYER
5
2
100
AcDbSymbolTable
70
2
0
LAYER
5
50
100
AcDbSymbolTableRecord
100
AcDbLayerTableRecord
2
0
70
0
6
CONTINUOUS
0
ENDTAB
0
TABLE
2
STYLE
5
3
100
AcDbSymbolTable
70
1
0
STYLE
5
11
100
AcDbSymbolTableRecord
100
AcDbTextStyleTableRecord
2
STANDARD
70
0
0
ENDTAB
0
TABLE
2
VIEW
5
6
100
AcDbSymbolTable
70
0
0
ENDTAB
0
TABLE
2
UCS
5
7
100
AcDbSymbolTable
70
0
0
ENDTAB
0
TABLE
2
APPID
5
9
100
AcDbSymbolTable
70
2
0
APPID
5
12
100
AcDbSymbolTableRecord
100
AcDbRegAppTableRecord
2
ACAD
70
0
0
ENDTAB
0
TABLE
2
DIMSTYLE
5
A
100
AcDbSymbolTable
70
1
0
ENDTAB
0
TABLE
2
BLOCK_RECORD
5
1
100
AcDbSymbolTable
70
1
0
BLOCK_RECORD
5
1F
100
AcDbSymbolTableRecord
100
AcDbBlockTableRecord
2
*MODEL_SPACE
0
BLOCK_RECORD
5
1B
100
AcDbSymbolTableRecord
100
AcDbBlockTableRecord
2
*PAPER_SPACE
0
ENDTAB
0
ENDSEC
0
SECTION
2
BLOCKS
0
BLOCK
5
20
100
AcDbEntity
100
AcDbBlockBegin
2
*MODEL_SPACE
0
ENDBLK
5
21
100
AcDbEntity
100
AcDbBlockEnd
0
BLOCK
5
1C
100
AcDbEntity
100
AcDbBlockBegin
2
*PAPER_SPACE
0
ENDBLK
5
1D
100
AcDbEntity
100
AcDbBlockEnd
0
ENDSEC
0
SECTION
2
ENTITIES
0
LWPOLYLINE
5
100
100
AcDbEntity
8
0
100
AcDbPolyline
90
8
70
1
43
0.0
10
113.4906383804409
20
73.892658633994245
42
0.41421356237309614
10
123.39013331705253
20
73.89265863399423
10
138.23937572196994
20
88.741901038911635
42
0.4142135623730972
10
138.23937572196996
20
98.641395975523466
10
98.641395975523352
20
138.23937572197008
42
0.41421356237309664
10
88.741901038911692
20
138.23937572197008
10
73.892658633994316
20
123.39013331705263
42
0.41421356237309476
10
73.89265863399433
20
113.490638380441
0
CIRCLE
5
101
100
AcDbEntity
8
0
100
AcDbCircle
10
-127.00000000000003
20
56.847763108502285
30
2.2204460492503131e-15
40
2.750000000000004
210
9.2444637330587321e-33
220
-4.6222318665293654e-33
230
1
0
CIRCLE
5
102
100
AcDbEntity
8
0
100
AcDbCircle
10
-56.847763108502363
20
127.00000000000003
30
2.2204460492503131e-15
40
2.750000000000004
210
9.2444637330587321e-33
220
-4.6222318665293654e-33
230
1
0
LWPOLYLINE
5
103
100
AcDbEntity
8
0
100
AcDbPolyline
90
4
70
1
43
0.0
10
-20.000000000000014
20
128
10
19.999999999999996
20
128.00000000000003
10
19.999999999999996
20
113.00000000000003
10
-19.999999999999961
20
113
0
CIRCLE
5
104
100
AcDbEntity
8
0
100
AcDbCircle
10
-56.847763108502328
20
-127.00000000000003
30
2.2204460492503131e-15
40
2.750000000000004
210
9.2444637330587348e-33
220
-9.2444637330587307e-33
230
1
0
CIRCLE
5
105
100
AcDbEntity
8
0
100
AcDbCircle
10
56.847763108502313
20
127.00000000000003
30
2.2204460492503131e-15
40
2.750000000000004
210
1.0785207688568521e-32
220
-4.6222318665293654e-33
230
1
0
CIRCLE
5
106
100
AcDbEntity
8
0
100
AcDbCircle
10
126.99999999999996
20
56.847763108502356
30
2.2204460492503131e-15
40
2.750000000000004
210
1.0785207688568521e-32
220
-4.6222318665293654e-33
230
1
0
LWPOLYLINE
5
107
100
AcDbEntity
8
0
100
AcDbPolyline
90
8
70
1
43
0.0
10
-73.892658633994245
20
113.49063838044091
42
0.41421356237309553
10
-73.892658633994245
20
123.39013331705257
10
-88.741901038911664
20
138.23937572197002
42
0.41421356237309553
10
-98.641395975523452
20
138.23937572196999
10
-138.23937572197008
20
98.641395975523324
42
0.41421356237309664
10
-138.23937572197005
20
88.741901038911678
10
-123.39013331705269
20
73.89265863399433
42
0.41421356237309553
10
-113.490638380441
20
73.892658633994316
0
LWPOLYLINE
5
108
100
AcDbEntity
8
0
100
AcDbPolyline
90
8
70
1
43
0.0
10
-113.49063838044091
20
-73.89265863399423
42
0.41421356237309453
10
-123.39013331705254
20
-73.892658633994216
10
-138.23937572196999
20
-88.741901038911635
42
0.41421356237309503
10
-138.23937572196999
20
-98.641395975523437
10
-98.641395975523366
20
-138.23937572197008
42
0.41421356237309664
10
-88.741901038911692
20
-138.23937572197008
10
-73.89265863399433
20
-123.39013331705262
42
0.41421356237309531
10
-73.892658633994344
20
-113.490638380441
0
CIRCLE
5
109
100
AcDbEntity
8
0
100
AcDbCircle
10
56.847763108502306
20
-127.00000000000003
30
2.2204460492503131e-15
40
2.750000000000004
210
1.0785207688568522e-32
220
-9.2444637330587307e-33
230
1
0
LWPOLYLINE
5
110
100
AcDbEntity
8
0
100
AcDbPolyline
90
4
70
1
43
0.0
10
19.999999999999979
20
-128
10
-20.000000000000014
20
-128
10
-20.000000000000014
20
-113
10
20.000000000000032
20
-112.99999999999999
0
CIRCLE
5
111
100
AcDbEntity
8
0
100
AcDbCircle
10
126.99999999999996
20
-56.847763108502328
30
2.2204460492503131e-15
40
2.750000000000004
210
1.0785207688568522e-32
220
-9.2444637330587307e-33
230
1
0
LWPOLYLINE
5
112
100
AcDbEntity
8
0
100
AcDbPolyline
90
4
70
1
43
0.0
10
112.99999999999999
20
20.000000000000032
10
127.99999999999999
20
20.000000000000021
10
127.99999999999996
20
-20.000000000000004
10
112.99999999999997
20
-19.999999999999972
0
LWPOLYLINE
5
113
100
AcDbEntity
8
0
100
AcDbPolyline
90
8
70
1
43
0.0
10
73.892658633994188
20
-113.49063838044094
42
0.41421356237309614
10
73.892658633994174
20
-123.39013331705257
10
88.741901038911578
20
-138.23937572197002
42
0.41421356237309398
10
98.641395975523352
20
-138.23937572196996
10
138.23937572196999
20
-98.64139597552338
42
0.41421356237309609
10
138.23937572196999
20
-88.741901038911735
10
123.39013331705262
20
-73.892658633994358
42
0.41421356237309348
10
113.49063838044091
20
-73.892658633994344
0
CIRCLE
5
114
100
AcDbEntity
8
0
100
AcDbCircle
10
1.5988151498607858e-24
20
101.00000000000001
30
2.2204460492503131e-15
40
2.0000000000000009
210
7.7037197775489434e-33
220
-6.1629758220391534e-33
230
1
0
CIRCLE
5
115
100
AcDbEntity
8
0
100
AcDbCircle
10
-126.99999999999996
20
-56.847763108502335
30
2.2204460492503131e-15
40
2.750000000000004
210
9.2444637330587348e-33
220
-9.2444637330587307e-33
230
1
0
LWPOLYLINE
5
116
100
AcDbEntity
8
0
100
AcDbPolyline
90
4
70
1
43
0.0
10
-127.99999999999991
20
-19.999999999999996
10
-127.99999999999996
20
19.999999999999989
10
-112.99999999999999
20
20.000000000000064
10
-113
20
-20.000000000000014
0
CIRCLE
5
117
100
AcDbEntity
8
0
100
AcDbCircle
10
-101.00000000000001
20
-3.3639757632516457e-14
30
2.2204460492503131e-15
40
1.9999999999999933
210
7.7037197775489448e-33
220
-6.1629758220391534e-33
230
1
0
CIRCLE
5
118
100
AcDbEntity
8
0
100
AcDbCircle
10
-1.2368932669789453e-14
20
-101.00000000000001
30
2.2204460492503131e-15
40
2.0000000000000009
210
7.7037197775489434e-33
220
-6.1629758220391534e-33
230
1
0
CIRCLE
5
119
100
AcDbEntity
8
0
100
AcDbCircle
10
1.5988151806756649e-24
20
1.3625791777237523e-23
30
2.2204460492503131e-15
40
15.00000022351742
210
1.2325951644078308e-32
220
-9.2444637330587348e-33
230
1
0
CIRCLE
5
120
100
AcDbEntity
8
0
100
AcDbCircle
10
101
20
-1.1213252535088293e-14
30
2.2204460492503131e-15
40
1.9999999999999933
210
7.7037197775489448e-33
220
-6.1629758220391534e-33
230
1
0
CIRCLE
5
121
100
AcDbEntity
8
0
100
AcDbCircle
10
-19.50000029057264
20
-2.1302404471337713e-15
30
2.2204460492503131e-15
40
2.7499999999999996
210
1.3866695599588098e-32
220
-6.1629758220391534e-33
230
1
0
CIRCLE
5
122
100
AcDbEntity
8
0
100
AcDbCircle
10
19.50000029057264
20
2.199629413424427e-15
30
2.2204460492503131e-15
40
2.7499999999999996
210
1.3866695599588098e-32
220
-6.1629758220391534e-33
230
1
0
CIRCLE
5
123
100
AcDbEntity
8
0
100
AcDbCircle
10
29.999999999999993
20
30.000000000000007
30
2.2204460492503131e-15
40
2.7499999999999996
210
1.3866695599588098e-32
220
-6.1629758220391534e-33
230
1
0
CIRCLE
5
124
100
AcDbEntity
8
0
100
AcDbCircle
10
-29.999999999999993
20
29.999999999999996
30
2.2204460492503131e-15
40
2.750000000000004
210
9.2444637330587348e-33
220
-7.703719777548942e-33
230
1
0
CIRCLE
5
125
100
AcDbEntity
8
0
100
AcDbCircle
10
-29.999999999999993
20
-30.000000000000007
30
2.2204460492503131e-15
40
2.7499999999999996
210
1.3866695599588098e-32
220
-6.1629758220391534e-33
230
1
0
CIRCLE
5
126
100
AcDbEntity
8
0
100
AcDbCircle
10
29.999999999999993
20
-29.999999999999996
30
2.2204460492503131e-15
40
2.7499999999999996
210
1.3866695599588098e-32
220
-6.1629758220391534e-33
230
1
0
CIRCLE
5
127
100
AcDbEntity
8
0
100
AcDbCircle
10
34.999999999999972
20
127.00000000000003
30
2.2204460492503131e-15
40
2.750000000000004
210
9.2444637330587348e-33
220
-7.703719777548942e-33
230
1
0
CIRCLE
5
128
100
AcDbEntity
8
0
100
AcDbCircle
10
34.999999999999972
20
102.99999999999999
30
2.2204460492503131e-15
40
2.7499999999999951
210
1.0785207688568521e-32
220
-1.5407439555097883e-33
230
1
0
CIRCLE
5
129
100
AcDbEntity
8
0
100
AcDbCircle
10
34.999999999999972
20
91
30
2.2204460492503131e-15
40
2.7499999999999951
210
1.0785207688568521e-32
220
-1.5407439555097883e-33
230
1
0
CIRCLE
5
130
100
AcDbEntity
8
0
100
AcDbCircle
10
22.999999999999979
20
79.000000000000014
30
2.2204460492503131e-15
40
2.750000000000004
210
9.2444637330587348e-33
220
-7.703719777548942e-33
230
1
0
CIRCLE
5
131
100
AcDbEntity
8
0
100
AcDbCircle
10
12.999999999999982
20
79.000000000000014
30
2.2204460492503131e-15
40
2.7499999999999996
210
1.3866695599588098e-32
220
-6.1629758220391534e-33
230
1
0
CIRCLE
5
132
100
AcDbEntity
8
0
100
AcDbCircle
10
78.999999999999972
20
23.000000000000004
30
2.2204460492503131e-15
40
2.750000000000004
210
9.2444637330587348e-33
220
-7.703719777548942e-33
230
1
0
CIRCLE
5
133
100
AcDbEntity
8
0
100
AcDbCircle
10
78.999999999999986
20
13.000000000000005
30
2.2204460492503131e-15
40
2.750000000000004
210
9.2444637330587348e-33
220
-7.703719777548942e-33
230
1
0
CIRCLE
5
134
100
AcDbEntity
8
0
100
AcDbCircle
10
90.999999999999957
20
35.000000000000014
30
2.2204460492503131e-15
40
2.750000000000004
210
9.2444637330587348e-33
220
-7.703719777548942e-33
230
1
0
CIRCLE
5
135
100
AcDbEntity
8
0
100
AcDbCircle
10
102.99999999999997
20
35.000000000000014
30
2.2204460492503131e-15
40
2.750000000000004
210
9.2444637330587348e-33
220
-7.703719777548942e-33
230
1
0
CIRCLE
5
136
100
AcDbEntity
8
0
100
AcDbCircle
10
126.99999999999997
20
35.000000000000028
30
2.2204460492503131e-15
40
2.750000000000004
210
9.2444637330587348e-33
220
-7.703719777548942e-33
230
1
0
CIRCLE
5
137
100
AcDbEntity
8
0
100
AcDbCircle
10
-78.999999999999972
20
22.999999999999979
30
2.2204460492503131e-15
40
2.7499999999999951
210
1.0785207688568521e-32
220
-1.5407439555097883e-33
230
1
0
CIRCLE
5
138
100
AcDbEntity
8
0
100
AcDbCircle
10
-78.999999999999943
20
12.99999999999998
30
2.2204460492503131e-15
40
2.750000000000004
210
9.2444637330587348e-33
220
-7.703719777548942e-33
230
1
0
CIRCLE
5
139
100
AcDbEntity
8
0
100
AcDbCircle
10
-90.999999999999957
20
34.999999999999986
30
2.2204460492503131e-15
40
2.750000000000004
210
9.2444637330587348e-33
220
-7.703719777548942e-33
230
1
0
CIRCLE
5
140
100
AcDbEntity
8
0
100
AcDbCircle
10
-102.99999999999999
20
34.999999999999986
30
2.2204460492503131e-15
40
2.750000000000004
210
9.2444637330587348e-33
220
-7.703719777548942e-33
230
1
0
CIRCLE
5
141
100
AcDbEntity
8
0
100
AcDbCircle
10
-126.99999999999996
20
34.999999999999979
30
2.2204460492503131e-15
40
2.750000000000004
210
9.2444637330587348e-33
220
-7.703719777548942e-33
230
1
0
CIRCLE
5
142
100
AcDbEntity
8
0
100
AcDbCircle
10
-22.999999999999986
20
79.000000000000014
30
2.2204460492503131e-15
40
2.750000000000004
210
9.2444637330587348e-33
220
-7.703719777548942e-33
230
1
0
CIRCLE
5
143
100
AcDbEntity
8
0
100
AcDbCircle
10
-12.999999999999988
20
79.000000000000014
30
2.2204460492503131e-15
40
2.7499999999999996
210
1.3866695599588098e-32
220
-6.1629758220391534e-33
230
1
0
CIRCLE
5
144
100
AcDbEntity
8
0
100
AcDbCircle
10
-34.999999999999986
20
90.999999999999972
30
2.2204460492503131e-15
40
2.7499999999999951
210
1.0785207688568521e-32
220
-1.5407439555097883e-33
230
1
0
CIRCLE
5
145
100
AcDbEntity
8
0
100
AcDbCircle
10
-34.999999999999986
20
102.99999999999999
30
2.2204460492503131e-15
40
2.7499999999999951
210
1.0785207688568521e-32
220
-1.5407439555097883e-33
230
1
0
CIRCLE
5
146
100
AcDbEntity
8
0
100
AcDbCircle
10
-35
20
127.00000000000004
30
2.2204460492503131e-15
40
2.750000000000004
210
9.2444637330587348e-33
220
-7.703719777548942e-33
230
1
0
CIRCLE
5
147
100
AcDbEntity
8
0
100
AcDbCircle
10
-22.999999999999986
20
-78.999999999999986
30
2.2204460492503131e-15
40
2.750000000000004
210
9.2444637330587348e-33
220
-7.703719777548942e-33
230
1
0
CIRCLE
5
148
100
AcDbEntity
8
0
100
AcDbCircle
10
-12.999999999999993
20
-78.999999999999986
30
2.2204460492503131e-15
40
2.7500000000000018
210
1.3866695599588098e-32
220
-6.1629758220391534e-33
230
1
0
CIRCLE
5
149
100
AcDbEntity
8
0
100
AcDbCircle
10
-34.999999999999986
20
-90.999999999999957
30
2.2204460492503131e-15
40
2.7499999999999951
210
1.0785207688568521e-32
220
-1.5407439555097883e-33
230
1
0
CIRCLE
5
150
100
AcDbEntity
8
0
100
AcDbCircle
10
-34.999999999999986
20
-102.99999999999999
30
2.2204460492503131e-15
40
2.7499999999999951
210
1.0785207688568521e-32
220
-1.5407439555097883e-33
230
1
0
CIRCLE
5
151
100
AcDbEntity
8
0
100
AcDbCircle
10
-34.999999999999972
20
-127
30
2.2204460492503131e-15
40
2.750000000000004
210
9.2444637330587348e-33
220
-7.703719777548942e-33
230
1
0
CIRCLE
5
152
100
AcDbEntity
8
0
100
AcDbCircle
10
-78.999999999999943
20
-22.999999999999993
30
2.2204460492503131e-15
40
2.750000000000004
210
9.2444637330587348e-33
220
-7.703719777548942e-33
230
1
0
CIRCLE
5
153
100
AcDbEntity
8
0
100
AcDbCircle
10
-78.999999999999986
20
-12.999999999999993
30
2.2204460492503131e-15
40
2.750000000000004
210
9.2444637330587348e-33
220
-7.703719777548942e-33
230
1
0
CIRCLE
5
154
100
AcDbEntity
8
0
100
AcDbCircle
10
-90.999999999999972
20
-35.000000000000007
30
2.2204460492503131e-15
40
2.750000000000004
210
9.2444637330587348e-33
220
-7.703719777548942e-33
230
1
0
CIRCLE
5
155
100
AcDbEntity
8
0
100
AcDbCircle
10
-103
20
-35
30
2.2204460492503131e-15
40
2.750000000000004
210
9.2444637330587348e-33
220
-7.703719777548942e-33
230
1
0
CIRCLE
5
156
100
AcDbEntity
8
0
100
AcDbCircle
10
-127
20
-35.000000000000021
30
2.2204460492503131e-15
40
2.750000000000004
210
9.2444637330587348e-33
220
-7.703719777548942e-33
230
1
0
CIRCLE
5
157
100
AcDbEntity
8
0
100
AcDbCircle
10
78.999999999999986
20
-22.999999999999989
30
2.2204460492503131e-15
40
2.750000000000004
210
9.2444637330587348e-33
220
-7.703719777548942e-33
230
1
0
CIRCLE
5
158
100
AcDbEntity
8
0
100
AcDbCircle
10
78.999999999999986
20
-12.999999999999989
30
2.2204460492503131e-15
40
2.750000000000004
210
9.2444637330587348e-33
220
-7.703719777548942e-33
230
1
0
CIRCLE
5
159
100
AcDbEntity
8
0
100
AcDbCircle
10
90.999999999999943
20
-34.999999999999993
30
2.2204460492503131e-15
40
2.750000000000004
210
9.2444637330587348e-33
220
-7.703719777548942e-33
230
1
0
CIRCLE
5
160
100
AcDbEntity
8
0
100
AcDbCircle
10
102.99999999999994
20
-34.999999999999993
30
2.2204460492503131e-15
40
2.750000000000004
210
9.2444637330587348e-33
220
-7.703719777548942e-33
230
1
0
CIRCLE
5
161
100
AcDbEntity
8
0
100
AcDbCircle
10
126.99999999999996
20
-34.999999999999986
30
2.2204460492503131e-15
40
2.750000000000004
210
9.2444637330587348e-33
220
-7.703719777548942e-33
230
1
0
CIRCLE
5
162
100
AcDbEntity
8
0
100
AcDbCircle
10
22.999999999999975
20
-79
30
2.2204460492503131e-15
40
2.750000000000004
210
9.2444637330587348e-33
220
-7.703719777548942e-33
230
1
0
CIRCLE
5
163
100
AcDbEntity
8
0
100
AcDbCircle
10
12.999999999999982
20
-79.000000000000014
30
2.2204460492503131e-15
40
2.7499999999999996
210
1.3866695599588098e-32
220
-6.1629758220391534e-33
230
1
0
CIRCLE
5
164
100
AcDbEntity
8
0
100
AcDbCircle
10
34.999999999999986
20
-90.999999999999957
30
2.2204460492503131e-15
40
2.7499999999999951
210
1.0785207688568521e-32
220
-1.5407439555097883e-33
230
1
0
CIRCLE
5
165
100
AcDbEntity
8
0
100
AcDbCircle
10
34.999999999999964
20
-103
30
2.2204460492503131e-15
40
2.7499999999999951
210
1.0785207688568521e-32
220
-1.5407439555097883e-33
230
1
0
CIRCLE
5
166
100
AcDbEntity
8
0
100
AcDbCircle
10
34.999999999999986
20
-126.99999999999997
30
2.2204460492503131e-15
40
2.750000000000004
210
9.2444637330587348e-33
220
-7.703719777548942e-33
230
1
0
CIRCLE
5
167
100
AcDbEntity
8
0
100
AcDbCircle
10
1.5988151806756649e-24
20
35.000000000000007
30
2.2204460492503131e-15
40
2.7500000000000009
210
7.7037197775489448e-33
220
-7.703719777548942e-33
230
1
0
CIRCLE
5
168
100
AcDbEntity
8
0
100
AcDbCircle
10
-34.999999999999993
20
-9.4368956956880397e-15
30
2.2204460492503131e-15
40
2.7499999999999996
210
1.3866695599588098e-32
220
-6.1629758220391534e-33
230
1
0
CIRCLE
5
169
100
AcDbEntity
8
0
100
AcDbCircle
10
-50.000000000000007
20
-3.1018215112052865e-15
30
2.2204460492503131e-15
40
2.750000000000004
210
9.2444637330587348e-33
220
-7.703719777548942e-33
230
1
0
CIRCLE
5
170
100
AcDbEntity
8
0
100
AcDbCircle
10
-64.999999999999972
20
-3.8486709487825037e-15
30
2.2204460492503131e-15
40
2.750000000000004
210
9.2444637330587348e-33
220
-7.703719777548942e-33
230
1
0
CIRCLE
5
171
100
AcDbEntity
8
0
100
AcDbCircle
10
-3.0616169962695675e-15
20
-35.000000000000007
30
2.2204460492503131e-15
40
2.7500000000000009
210
7.7037197775489448e-33
220
-7.703719777548942e-33
230
1
0
CIRCLE
5
172
100
AcDbEntity
8
0
100
AcDbCircle
10
-4.8985871949905963e-15
20
-50
30
2.2204460492503131e-15
40
2.7500000000000009
210
7.7037197775489448e-33
220
-7.703719777548942e-33
230
1
0
CIRCLE
5
173
100
AcDbEntity
8
0
100
AcDbCircle
10
-6.7355573937116251e-15
20
-65.000000000000014
30
2.2204460492503131e-15
40
2.7500000000000009
210
7.7037197775489448e-33
220
-7.703719777548942e-33
230
1
0
CIRCLE
5
174
100
AcDbEntity
8
0
100
AcDbCircle
10
34.999999999999993
20
-1.6653345233119437e-15
30
2.2204460492503131e-15
40
2.7499999999999996
210
1.3866695599588098e-32
220
-6.1629758220391534e-33
230
1
0
CIRCLE
5
175
100
AcDbEntity
8
0
100
AcDbCircle
10
49.999999999999993
20
-3.3306690602496779e-15
30
2.2204460492503131e-15
40
2.750000000000004
210
9.2444637330587348e-33
220
-7.703719777548942e-33
230
1
0
CIRCLE
5
176
100
AcDbEntity
8
0
100
AcDbCircle
10
64.999999999999986
20
-4.9960035971874135e-15
30
2.2204460492503131e-15
40
2.750000000000004
210
9.2444637330587348e-33
220
-7.703719777548942e-33
230
1
0
LWPOLYLINE
5
177
100
AcDbEntity
8
0
100
AcDbPolyline
90
4
70
1
43
0.0
10
9.1999999999999975
20
45.80000000000009
42
0.99999999999999989
10
14.199999999999998
20
45.80000000000009
10
14.200000000000001
20
69.200000000000102
42
0.99999999999999989
10
9.1999999999999975
20
69.200000000000088
0
LWPOLYLINE
5
178
100
AcDbEntity
8
0
100
AcDbPolyline
90
4
70
1
43
0.0
10
-14.199999999999998
20
45.80000000000009
42
0.99999999999999989
10
-9.1999999999999975
20
45.80000000000009
10
-9.1999999999999922
20
69.200000000000088
42
0.99999999999999989
10
-14.199999999999998
20
69.200000000000102
0
LWPOLYLINE
5
179
100
AcDbEntity
8
0
100
AcDbPolyline
90
16
70
1
43
0.0
10
91.525432638166052
20
-150
42
0.19891236737965787
10
119.80970388562795
20
-138.28427124746193
10
138.28427124746187
20
-119.80970388562801
42
0.19891236737965784
10
149.99999999999997
20
-91.525432638166109
10
149.99999999999997
20
91.525432638166109
42
0.19891236737965812
10
138.28427124746187
20
119.80970388562802
10
119.80970388562794
20
138.2842712474619
42
0.19891236737965784
10
91.525432638166052
20
150
10
-91.525432638166123
20
150.00000000000003
42
0.19891236737965795
10
-119.80970388562802
20
138.2842712474619
10
-138.28427124746196
20
119.80970388562795
42
0.19891236737965778
10
-150
20
91.525432638166052
10
-149.99999999999997
20
-91.525432638166109
42
0.19891236737965801
10
-138.2842712474619
20
-119.80970388562801
10
-119.80970388562797
20
-138.28427124746187
42
0.19891236737965801
10
-91.52543263816608
20
-149.99999999999997
0
ENDSEC
0
SECTION
2
OBJECTS
0
DICTIONARY
5
C
100
AcDbDictionary
3
ACAD_GROUP
350
D
3
ACAD_MLINESTYLE
350
17
0
DICTIONARY
5
D
100
AcDbDictionary
0
DICTIONARY
5
1A
330
C
100
AcDbDictionary
0
DICTIONARY
5
17
100
AcDbDictionary
0
ENDSEC
0
EOF
