0
SECTION
2
HEADER
9
$INSUNITS
70
4
9
$ACADVER
1
AC1014
9
$HANDSEED
5
FFFF
0
ENDSEC
0
SECTION
2
TABLES
0
TABLE
2
VPORT
5
8
100
AcDbSymbolTable
0
ENDTAB
0
TABLE
2
LTYPE
5
5
100
AcDbSymbolTable
0
LTYPE
5
14
100
AcDbSymbolTableRecord
100
AcDbLinetypeTableRecord
2
BYBLOCK
70
0
0
LTYPE
5
15
100
AcDbSymbolTableRecord
100
AcDbLinetypeTableRecord
2
BYLAYER
70
0
0
ENDTAB
0
TABLE
2
LAYER
5
2
100
AcDbSymbolTable
70
2
0
LAYER
5
50
100
AcDbSymbolTableRecord
100
AcDbLayerTableRecord
2
0
70
0
6
CONTINUOUS
0
ENDTAB
0
TABLE
2
STYLE
5
3
100
AcDbSymbolTable
70
1
0
STYLE
5
11
100
AcDbSymbolTableRecord
100
AcDbTextStyleTableRecord
2
STANDARD
70
0
0
ENDTAB
0
TABLE
2
VIEW
5
6
100
AcDbSymbolTable
70
0
0
ENDTAB
0
TABLE
2
UCS
5
7
100
AcDbSymbolTable
70
0
0
ENDTAB
0
TABLE
2
APPID
5
9
100
AcDbSymbolTable
70
2
0
APPID
5
12
100
AcDbSymbolTableRecord
100
AcDbRegAppTableRecord
2
ACAD
70
0
0
ENDTAB
0
TABLE
2
DIMSTYLE
5
A
100
AcDbSymbolTable
70
1
0
ENDTAB
0
TABLE
2
BLOCK_RECORD
5
1
100
AcDbSymbolTable
70
1
0
BLOCK_RECORD
5
1F
100
AcDbSymbolTableRecord
100
AcDbBlockTableRecord
2
*MODEL_SPACE
0
BLOCK_RECORD
5
1B
100
AcDbSymbolTableRecord
100
AcDbBlockTableRecord
2
*PAPER_SPACE
0
ENDTAB
0
ENDSEC
0
SECTION
2
BLOCKS
0
BLOCK
5
20
100
AcDbEntity
100
AcDbBlockBegin
2
*MODEL_SPACE
0
ENDBLK
5
21
100
AcDbEntity
100
AcDbBlockEnd
0
BLOCK
5
1C
100
AcDbEntity
100
AcDbBlockBegin
2
*PAPER_SPACE
0
ENDBLK
5
1D
100
AcDbEntity
100
AcDbBlockEnd
0
ENDSEC
0
SECTION
2
ENTITIES
0
CIRCLE
5
100
100
AcDbEntity
8
0
100
AcDbCircle
10
-56.847763108502377
20
127.00000000000001
30
0
40
2.7500000000000036
210
0
220
-0
230
1
0
LWPOLYLINE
5
101
100
AcDbEntity
8
0
100
AcDbPolyline
90
4
70
1
43
0.0
10
30
20
-138.58192987669295
10
-30
20
-138.58192987669287
10
-29.999999999999986
20
-123.58192987669285
10
30.000000000000014
20
-123.58192987669293
0
LWPOLYLINE
5
102
100
AcDbEntity
8
0
100
AcDbPolyline
90
4
70
1
43
0.0
10
123.58192987669284
20
-30
10
123.58192987669295
20
30.000000000000018
10
138.58192987669295
20
30
10
138.58192987669284
20
-30
0
LWPOLYLINE
5
103
100
AcDbEntity
8
0
100
AcDbPolyline
90
4
70
1
43
0.0
10
30
20
123.58192987669284
10
-30
20
123.58192987669295
10
-29.999999999999993
20
138.58192987669295
10
30
20
138.58192987669284
0
LWPOLYLINE
5
104
100
AcDbEntity
8
0
100
AcDbPolyline
90
4
70
1
43
0.0
10
-123.58192987669284
20
30.000000000000018
10
-123.58192987669295
20
-30
10
-138.58192987669295
20
-29.999999999999982
10
-138.58192987669284
20
30.000000000000018
0
LWPOLYLINE
5
105
100
AcDbEntity
8
0
100
AcDbPolyline
90
8
70
1
43
0.0
10
106.41957056857548
20
80.963726445859749
42
0.41421356237309398
10
116.31906550518701
20
80.963726445859749
10
131.16830791010449
20
95.812968850777125
42
0.41421356237309398
10
131.16830791010449
20
105.71246378738891
10
105.7124637873888
20
131.16830791010457
42
0.41421356237309609
10
95.812968850777168
20
131.16830791010457
10
80.963726445859777
20
116.31906550518718
42
0.41421356237309503
10
80.963726445859777
20
106.41957056857549
0
CIRCLE
5
106
100
AcDbEntity
8
0
100
AcDbCircle
10
56.847763108502321
20
127.00000000000001
30
0
40
2.7500000000000036
210
0
220
0
230
1
0
CIRCLE
5
107
100
AcDbEntity
8
0
100
AcDbCircle
10
53.410000000000927
20
3.4100000000006681
30
0
40
2.0000000000000018
210
0
220
-0
230
1
0
CIRCLE
5
108
100
AcDbEntity
8
0
100
AcDbCircle
10
101.60000000000208
20
51.599999999999525
30
0
40
1.9999999999999929
210
0
220
-0
230
1
0
CIRCLE
5
109
100
AcDbEntity
8
0
100
AcDbCircle
10
53.410000000002078
20
51.600000000000676
30
0
40
2.0000000000000018
210
0
220
-0
230
1
0
CIRCLE
5
110
100
AcDbEntity
8
0
100
AcDbCircle
10
127
20
56.847763108502335
30
0
40
2.7500000000000036
210
0
220
-0
230
1
0
CIRCLE
5
111
100
AcDbEntity
8
0
100
AcDbCircle
10
-127.00000000000006
20
56.847763108502306
30
0
40
2.7500000000000036
210
0
220
-0
230
1
0
CIRCLE
5
112
100
AcDbEntity
8
0
100
AcDbCircle
10
101.60000000000093
20
3.4099999999995134
30
0
40
1.9999999999999929
210
0
220
-0
230
1
0
CIRCLE
5
113
100
AcDbEntity
8
0
100
AcDbCircle
10
53.4100000000021
20
-51.600000000000662
30
0
40
2.0000000000000018
210
0
220
-0
230
1
0
CIRCLE
5
114
100
AcDbEntity
8
0
100
AcDbCircle
10
101.6000000000021
20
-51.599999999999483
30
0
40
1.9999999999999929
210
0
220
-0
230
1
0
CIRCLE
5
115
100
AcDbEntity
8
0
100
AcDbCircle
10
101.60000000000093
20
-3.4099999999994743
30
0
40
1.9999999999999929
210
0
220
-0
230
1
0
CIRCLE
5
116
100
AcDbEntity
8
0
100
AcDbCircle
10
53.410000000000927
20
-3.4100000000006481
30
0
40
2.0000000000000018
210
0
220
-0
230
1
0
CIRCLE
5
117
100
AcDbEntity
8
0
100
AcDbCircle
10
-38.749999999998927
20
-13.000000000002158
30
0
40
2.7500000000000036
210
0
220
-0
230
1
0
CIRCLE
5
118
100
AcDbEntity
8
0
100
AcDbCircle
10
-101.25000000000107
20
-13.000000000002158
30
0
40
2.7500000000000036
210
0
220
-0
230
1
0
CIRCLE
5
119
100
AcDbEntity
8
0
100
AcDbCircle
10
-36
20
131.08192987669295
30
0
40
2.7500000000000036
210
0
220
-0
230
1
0
CIRCLE
5
120
100
AcDbEntity
8
0
100
AcDbCircle
10
-36
20
104.41526321002628
30
0
40
2.7500000000000036
210
0
220
-0
230
1
0
CIRCLE
5
121
100
AcDbEntity
8
0
100
AcDbCircle
10
-46
20
91.081929876692996
30
0
40
2.7500000000000036
210
0
220
-0
230
1
0
CIRCLE
5
122
100
AcDbEntity
8
0
100
AcDbCircle
10
-91.081929876693067
20
45.999999999999872
30
0
40
2.7500000000000036
210
0
220
-0
230
1
0
CIRCLE
5
123
100
AcDbEntity
8
0
100
AcDbCircle
10
-104.41526321002634
20
35.999999999999865
30
0
40
2.7500000000000036
210
0
220
-0
230
1
0
CIRCLE
5
124
100
AcDbEntity
8
0
100
AcDbCircle
10
-131.08192987669301
20
35.999999999999837
30
0
40
2.7500000000000036
210
0
220
-0
230
1
0
CIRCLE
5
125
100
AcDbEntity
8
0
100
AcDbCircle
10
-71
20
104.41526321002634
30
0
40
2.7500000000000036
210
0
220
-0
230
1
0
CIRCLE
5
126
100
AcDbEntity
8
0
100
AcDbCircle
10
-104.41526321002644
20
70.999999999999858
30
0
40
2.7500000000000036
210
0
220
-0
230
1
0
CIRCLE
5
127
100
AcDbEntity
8
0
100
AcDbCircle
10
-104.4152632100263
20
-36.000000000000028
30
0
40
2.7500000000000036
210
0
220
-0
230
1
0
CIRCLE
5
128
100
AcDbEntity
8
0
100
AcDbCircle
10
-131.08192987669298
20
-36.000000000000036
30
0
40
2.7500000000000036
210
0
220
-0
230
1
0
CIRCLE
5
129
100
AcDbEntity
8
0
100
AcDbCircle
10
-104.41526321002634
20
-71.000000000000043
30
0
40
2.7500000000000036
210
0
220
-0
230
1
0
CIRCLE
5
130
100
AcDbEntity
8
0
100
AcDbCircle
10
-91.081929876692996
20
-58.500000000000021
30
0
40
2.7500000000000036
210
0
220
-0
230
1
0
CIRCLE
5
131
100
AcDbEntity
8
0
100
AcDbCircle
10
-70.999999999999844
20
-104.41526321002648
30
0
40
2.7500000000000036
210
0
220
-0
230
1
0
CIRCLE
5
132
100
AcDbEntity
8
0
100
AcDbCircle
10
-58.499999999999865
20
-91.081929876693124
30
0
40
2.7500000000000036
210
0
220
-0
230
1
0
CIRCLE
5
133
100
AcDbEntity
8
0
100
AcDbCircle
10
-35.999999999999815
20
-131.08192987669304
30
0
40
2.7500000000000036
210
0
220
-0
230
1
0
CIRCLE
5
134
100
AcDbEntity
8
0
100
AcDbCircle
10
35.999999999999979
20
-131.08192987669295
30
0
40
2.7500000000000036
210
0
220
-0
230
1
0
CIRCLE
5
135
100
AcDbEntity
8
0
100
AcDbCircle
10
104.41526321002644
20
-70.999999999999858
30
0
40
2.7500000000000036
210
0
220
-0
230
1
0
CIRCLE
5
136
100
AcDbEntity
8
0
100
AcDbCircle
10
91.081929876693096
20
-58.499999999999879
30
0
40
2.7500000000000036
210
0
220
-0
230
1
0
CIRCLE
5
137
100
AcDbEntity
8
0
100
AcDbCircle
10
131.08192987669301
20
-35.999999999999858
30
0
40
2.7500000000000036
210
0
220
-0
230
1
0
CIRCLE
5
138
100
AcDbEntity
8
0
100
AcDbCircle
10
131.08192987669295
20
35.999999999999964
30
0
40
2.7500000000000036
210
0
220
-0
230
1
0
CIRCLE
5
139
100
AcDbEntity
8
0
100
AcDbCircle
10
104.41526321002635
20
70.999999999999972
30
0
40
2.7500000000000036
210
0
220
-0
230
1
0
CIRCLE
5
140
100
AcDbEntity
8
0
100
AcDbCircle
10
91.08192987669301
20
58.499999999999979
30
0
40
2.7500000000000036
210
0
220
-0
230
1
0
CIRCLE
5
141
100
AcDbEntity
8
0
100
AcDbCircle
10
58.499999999999886
20
91.081929876693067
30
0
40
2.7500000000000036
210
0
220
-0
230
1
0
CIRCLE
5
142
100
AcDbEntity
8
0
100
AcDbCircle
10
35.999999999999886
20
104.41526321002634
30
0
40
2.7500000000000036
210
0
220
-0
230
1
0
CIRCLE
5
143
100
AcDbEntity
8
0
100
AcDbCircle
10
35.999999999999865
20
131.08192987669301
30
0
40
2.7500000000000036
210
0
220
-0
230
1
0
CIRCLE
5
144
100
AcDbEntity
8
0
100
AcDbCircle
10
-75
20
-37.500000000000007
30
0
40
2.7500000000000036
210
0
220
-0
230
1
0
CIRCLE
5
145
100
AcDbEntity
8
0
100
AcDbCircle
10
-75
20
-22.500000000000007
30
0
40
2.7500000000000036
210
0
220
-0
230
1
0
CIRCLE
5
146
100
AcDbEntity
8
0
100
AcDbCircle
10
-75.000000000000014
20
-7.5000000000000107
30
0
40
2.7500000000000036
210
0
220
-0
230
1
0
CIRCLE
5
147
100
AcDbEntity
8
0
100
AcDbCircle
10
-75.000000000000014
20
7.5
30
0
40
2.7500000000000036
210
0
220
-0
230
1
0
CIRCLE
5
148
100
AcDbEntity
8
0
100
AcDbCircle
10
-37.500000000000007
20
-75
30
0
40
2.7500000000000036
210
0
220
-0
230
1
0
LWPOLYLINE
5
149
100
AcDbEntity
8
0
100
AcDbPolyline
90
12
70
1
43
0.0
10
-53.43685563439368
20
53.436855634393567
10
-66.797966800065694
20
53.436855634393581
10
-66.797966800065623
20
27.436855634393602
10
-73.797966800065623
20
27.436855634393584
10
-73.797966800065666
20
53.436855634393588
10
-86.43685563439368
20
53.436855634393588
10
-86.43685563439368
20
86.436855634393567
10
-53.43685563439368
20
86.436855634393567
10
-53.43685563439368
20
73.797966800065609
10
-27.436855634393677
20
73.797966800065609
10
-27.436855634393677
20
66.797966800065595
10
-53.43685563439368
20
66.797966800065595
0
CIRCLE
5
150
100
AcDbEntity
8
0
100
AcDbCircle
10
37
20
97.000000000000014
30
0
40
1.9999999999999973
210
0
220
-0
230
1
0
CIRCLE
5
151
100
AcDbEntity
8
0
100
AcDbCircle
10
-17
20
97.000000000000014
30
0
40
1.9999999999999996
210
0
220
-0
230
1
0
CIRCLE
5
152
100
AcDbEntity
8
0
100
AcDbCircle
10
-11.029999999999777
20
-112.46000000000035
30
0
40
1.9999999999999973
210
0
220
-0
230
1
0
CIRCLE
5
153
100
AcDbEntity
8
0
100
AcDbCircle
10
-9.7599999999990512
20
-64.200000000000358
30
0
40
1.9999999999999951
210
0
220
-0
230
1
0
CIRCLE
5
154
100
AcDbEntity
8
0
100
AcDbCircle
10
65.170000000000954
20
-64.200000000001481
30
0
40
2.0000000000000018
210
0
220
-0
230
1
0
CIRCLE
5
155
100
AcDbEntity
8
0
100
AcDbCircle
10
41.040000000000717
20
-79.440000000001106
30
0
40
1.9999999999999973
210
0
220
-0
230
1
0
CIRCLE
5
156
100
AcDbEntity
8
0
100
AcDbCircle
10
41.040000000000312
20
-107.38000000000112
30
0
40
2.0000000000000018
210
0
220
-0
230
1
0
CIRCLE
5
157
100
AcDbEntity
8
0
100
AcDbCircle
10
71.520000000000223
20
-112.46000000000159
30
0
40
2.0000000000000018
210
0
220
-0
230
1
0
CIRCLE
5
158
100
AcDbEntity
8
0
100
AcDbCircle
10
37
20
63
30
0
40
1.9999999999999973
210
0
220
-0
230
1
0
LWPOLYLINE
5
159
100
AcDbEntity
8
0
100
AcDbPolyline
90
8
70
1
43
0.0
10
47
20
104
42
1.7320508075688865
10
48.732050807568882
20
101.00000000000003
10
69
20
101.00000000000001
10
69
20
118
10
49
20
118
42
2.4142135623730874
10
47
20
116.00000000000001
42
-0.41421356237310025
10
48.999999999999986
20
114.00000000000003
10
48.999999999999993
20
106
42
-0.41421356237310025
0
CIRCLE
5
160
100
AcDbEntity
8
0
100
AcDbCircle
10
-17
20
63
30
0
40
2.0000000000000018
210
0
220
-0
230
1
0
CIRCLE
5
161
100
AcDbEntity
8
0
100
AcDbCircle
10
56.847763108502313
20
-127.00000000000001
30
0
40
2.7500000000000036
210
0
220
-0
230
1
0
CIRCLE
5
162
100
AcDbEntity
8
0
100
AcDbCircle
10
127
20
-56.847763108502349
30
0
40
2.7500000000000036
210
0
220
-0
230
1
0
CIRCLE
5
163
100
AcDbEntity
8
0
100
AcDbCircle
10
-127
20
-56.847763108502321
30
0
40
2.7500000000000036
210
0
220
-0
230
1
0
CIRCLE
5
164
100
AcDbEntity
8
0
100
AcDbCircle
10
30.000000000000007
20
29.999999999999993
30
0
40
2.7500000000000036
210
0
220
-0
230
1
0
CIRCLE
5
165
100
AcDbEntity
8
0
100
AcDbCircle
10
29.999999999999996
20
-30.000000000000004
30
0
40
2.7499999999999991
210
0
220
-0
230
1
0
CIRCLE
5
166
100
AcDbEntity
8
0
100
AcDbCircle
10
-56.847763108502335
20
-127.00000000000001
30
0
40
2.7500000000000036
210
0
220
-0
230
1
0
CIRCLE
5
167
100
AcDbEntity
8
0
100
AcDbCircle
10
-1.7383567111216636e-14
20
42.426406871192874
30
0
40
2.7499999999999996
210
0
220
-0
230
1
0
LWPOLYLINE
5
168
100
AcDbEntity
8
0
100
AcDbPolyline
90
8
70
1
43
0.0
10
-80.963726445859777
20
106.41957056857548
42
0.41421356237309398
10
-80.963726445859777
20
116.31906550518701
10
-95.812968850777182
20
131.16830791010452
42
0.41421356237309503
10
-105.71246378738894
20
131.16830791010449
10
-131.16830791010463
20
105.71246378738878
42
0.41421356237309609
10
-131.16830791010463
20
95.812968850777139
10
-116.31906550518721
20
80.963726445859777
42
0.41421356237309503
10
-106.41957056857552
20
80.963726445859777
0
CIRCLE
5
169
100
AcDbEntity
8
0
100
AcDbCircle
10
-1.4575423929886741e-15
20
-42.426406871192867
30
0
40
2.7499999999999996
210
0
220
-0
230
1
0
CIRCLE
5
170
100
AcDbEntity
8
0
100
AcDbCircle
10
42.426406871192867
20
7.9630123591139786e-15
30
0
40
2.7499999999999991
210
0
220
-0
230
1
0
CIRCLE
5
171
100
AcDbEntity
8
0
100
AcDbCircle
10
-73.5501044792709
20
-138.58192987669304
30
0
40
2.7500000000000036
210
0
220
-0
230
1
0
CIRCLE
5
172
100
AcDbEntity
8
0
100
AcDbCircle
10
-138.58192987669307
20
-73.550104479271198
30
0
40
2.7500000000000036
210
0
220
-0
230
1
0
CIRCLE
5
173
100
AcDbEntity
8
0
100
AcDbCircle
10
-138.58192987669304
20
73.550104479270885
30
0
40
2.7500000000000036
210
0
220
-0
230
1
0
CIRCLE
5
174
100
AcDbEntity
8
0
100
AcDbCircle
10
73.550104479271226
20
-138.5819298766931
30
0
40
2.7499999999999947
210
0
220
-0
230
1
0
CIRCLE
5
175
100
AcDbEntity
8
0
100
AcDbCircle
10
138.58192987669304
20
-73.550104479270871
30
0
40
2.7500000000000036
210
0
220
-0
230
1
0
CIRCLE
5
176
100
AcDbEntity
8
0
100
AcDbCircle
10
138.58192987669307
20
73.550104479271226
30
0
40
2.7500000000000036
210
0
220
-0
230
1
0
CIRCLE
5
177
100
AcDbEntity
8
0
100
AcDbCircle
10
73.550104479270871
20
138.5819298766931
30
0
40
2.7500000000000036
210
0
220
-0
230
1
0
CIRCLE
5
178
100
AcDbEntity
8
0
100
AcDbCircle
10
-73.550104479271212
20
138.58192987669307
30
0
40
2.7500000000000036
210
0
220
-0
230
1
0
CIRCLE
5
179
100
AcDbEntity
8
0
100
AcDbCircle
10
-30
20
30
30
0
40
2.7500000000000036
210
0
220
-0
230
1
0
CIRCLE
5
180
100
AcDbEntity
8
0
100
AcDbCircle
10
-30
20
-30.000000000000018
30
0
40
2.7500000000000036
210
0
220
-0
230
1
0
LWPOLYLINE
5
181
100
AcDbEntity
8
0
100
AcDbPolyline
90
8
70
1
43
0.0
10
80.96372644585972
20
-106.41957056857549
42
0.41421356237309609
10
80.96372644585972
20
-116.31906550518704
10
95.812968850777082
20
-131.16830791010452
42
0.41421356237309453
10
105.71246378738886
20
-131.16830791010452
10
131.16830791010455
20
-105.71246378738884
42
0.41421356237309614
10
131.16830791010455
20
-95.81296885077721
10
116.31906550518715
20
-80.963726445859805
42
0.41421356237309193
10
106.41957056857547
20
-80.963726445859777
0
LWPOLYLINE
5
182
100
AcDbEntity
8
0
100
AcDbPolyline
90
8
70
1
43
0.0
10
27.716385975338618
20
11.480502970952653
10
27.716385975338582
20
-11.480502970952742
10
11.480502970952653
20
-27.716385975338618
10
-11.480502970952733
20
-27.716385975338582
10
-27.716385975338621
20
-11.480502970952653
10
-27.716385975338589
20
11.480502970952742
10
-11.480502970952653
20
27.716385975338618
10
11.480502970952733
20
27.716385975338582
0
LWPOLYLINE
5
183
100
AcDbEntity
8
0
100
AcDbPolyline
90
8
70
1
43
0.0
10
-106.41957056857549
20
-80.96372644585972
42
0.41421356237309609
10
-116.31906550518704
20
-80.96372644585972
10
-131.16830791010452
20
-95.812968850777111
42
0.41421356237309453
10
-131.16830791010449
20
-105.71246378738886
10
-105.71246378738883
20
-131.16830791010455
42
0.41421356237309609
10
-95.812968850777182
20
-131.16830791010455
10
-80.963726445859805
20
-116.31906550518715
42
0.41421356237309193
10
-80.963726445859805
20
-106.41957056857548
0
LWPOLYLINE
5
184
100
AcDbEntity
8
0
100
AcDbPolyline
90
16
70
1
43
0.0
10
91.52543263816608
20
-150.00000000000003
42
0.19891236737965787
10
119.80970388562797
20
-138.28427124746196
10
138.28427124746187
20
-119.80970388562801
42
0.19891236737965762
10
150
20
-91.525432638166137
10
150
20
91.525432638166095
42
0.19891236737965803
10
138.2842712474619
20
119.80970388562801
10
119.80970388562798
20
138.2842712474619
42
0.19891236737965801
10
91.52543263816608
20
150
10
-91.525432638166137
20
150.00000000000003
42
0.19891236737965784
10
-119.80970388562804
20
138.28427124746193
10
-138.28427124746196
20
119.80970388562795
42
0.19891236737965773
10
-150.00000000000003
20
91.52543263816608
10
-150.00000000000003
20
-91.525432638166095
42
0.19891236737965801
10
-138.2842712474619
20
-119.80970388562798
10
-119.80970388562798
20
-138.28427124746187
42
0.19891236737965795
10
-91.525432638166095
20
-149.99999999999997
0
ENDSEC
0
SECTION
2
OBJECTS
0
DICTIONARY
5
C
100
AcDbDictionary
3
ACAD_GROUP
350
D
3
ACAD_MLINESTYLE
350
17
0
DICTIONARY
5
D
100
AcDbDictionary
0
DICTIONARY
5
1A
330
C
100
AcDbDictionary
0
DICTIONARY
5
17
100
AcDbDictionary
0
ENDSEC
0
EOF
