0
SECTION
2
HEADER
9
$INSUNITS
70
4
9
$ACADVER
1
AC1014
9
$HANDSEED
5
FFFF
0
ENDSEC
0
SECTION
2
TABLES
0
TABLE
2
VPORT
5
8
100
AcDbSymbolTable
0
ENDTAB
0
TABLE
2
LTYPE
5
5
100
AcDbSymbolTable
0
LTYPE
5
14
100
AcDbSymbolTableRecord
100
AcDbLinetypeTableRecord
2
BYBLOCK
70
0
0
LTYPE
5
15
100
AcDbSymbolTableRecord
100
AcDbLinetypeTableRecord
2
BYLAYER
70
0
0
ENDTAB
0
TABLE
2
LAYER
5
2
100
AcDbSymbolTable
70
2
0
LAYER
5
50
100
AcDbSymbolTableRecord
100
AcDbLayerTableRecord
2
0
70
0
6
CONTINUOUS
0
ENDTAB
0
TABLE
2
STYLE
5
3
100
AcDbSymbolTable
70
1
0
STYLE
5
11
100
AcDbSymbolTableRecord
100
AcDbTextStyleTableRecord
2
STANDARD
70
0
0
ENDTAB
0
TABLE
2
VIEW
5
6
100
AcDbSymbolTable
70
0
0
ENDTAB
0
TABLE
2
UCS
5
7
100
AcDbSymbolTable
70
0
0
ENDTAB
0
TABLE
2
APPID
5
9
100
AcDbSymbolTable
70
2
0
APPID
5
12
100
AcDbSymbolTableRecord
100
AcDbRegAppTableRecord
2
ACAD
70
0
0
ENDTAB
0
TABLE
2
DIMSTYLE
5
A
100
AcDbSymbolTable
70
1
0
ENDTAB
0
TABLE
2
BLOCK_RECORD
5
1
100
AcDbSymbolTable
70
1
0
BLOCK_RECORD
5
1F
100
AcDbSymbolTableRecord
100
AcDbBlockTableRecord
2
*MODEL_SPACE
0
BLOCK_RECORD
5
1B
100
AcDbSymbolTableRecord
100
AcDbBlockTableRecord
2
*PAPER_SPACE
0
ENDTAB
0
ENDSEC
0
SECTION
2
BLOCKS
0
BLOCK
5
20
100
AcDbEntity
100
AcDbBlockBegin
2
*MODEL_SPACE
0
ENDBLK
5
21
100
AcDbEntity
100
AcDbBlockEnd
0
BLOCK
5
1C
100
AcDbEntity
100
AcDbBlockBegin
2
*PAPER_SPACE
0
ENDBLK
5
1D
100
AcDbEntity
100
AcDbBlockEnd
0
ENDSEC
0
SECTION
2
ENTITIES
0
LWPOLYLINE
5
100
100
AcDbEntity
8
0
100
AcDbPolyline
90
21
70
1
43
0.0
10
32.986219338144409
20
134.99999999999977
42
0.41421356237309592
10
29.986219338144409
20
131.99999999999974
10
29.986219338144409
20
84.99999999999973
10
-25.013780661855591
20
84.99999999999973
10
-25.013780661855591
20
134.99999999999974
10
-60.000000000000007
20
134.99999999999974
42
0.41421356237309531
10
-90
20
104.9999999999997
10
-90
20
-75.000000000000284
42
0.41421356237309581
10
-70
20
-95.000000000000284
10
-25.000000000000018
20
-95.000000000000298
42
-0.4142135623730937
10
-20.000000000000004
20
-100.0000000000003
10
-20.000000000000004
20
-115.00000000000028
42
0.41421356237309503
10
-15.000000000000002
20
-120.00000000000028
10
14.999999999999989
20
-120.00000000000028
42
0.41421356237309631
10
20.000000000000007
20
-115.00000000000028
10
19.999999999999968
20
-100.0000000000003
42
-0.41421356237309398
10
25.000000000000004
20
-95.000000000000284
10
70
20
-95.000000000000284
42
0.41421356237309581
10
90
20
-75.000000000000284
10
90
20
104.99999999999979
42
0.41421356237309503
10
59.999999999999986
20
134.99999999999977
0
CIRCLE
5
101
100
AcDbEntity
8
0
100
AcDbCircle
10
-7.9999999999999982
20
50.999999999999744
30
0
40
1.499999999999998
210
-7.8427205690951536e-76
220
9.8607613152626476e-32
230
1
0
CIRCLE
5
102
100
AcDbEntity
8
0
100
AcDbCircle
10
-31.781537563720672
20
88.933957814058928
30
0
40
2.7500000000000036
210
-7.8427205690951511e-76
220
9.8607613152626476e-32
230
1
0
CIRCLE
5
103
100
AcDbEntity
8
0
100
AcDbCircle
10
41.986219338144437
20
93.887416553247874
30
0
40
1.749999999999998
210
-1.4012984643248174e-45
220
-1.1145176257933761e-89
230
1
0
CIRCLE
5
104
100
AcDbEntity
8
0
100
AcDbCircle
10
71.999999999997073
20
40.000000000001506
30
0
40
3.499999999999996
210
-1.4012984643248174e-45
220
-1.1145176257933761e-89
230
1
0
LWPOLYLINE
5
105
100
AcDbEntity
8
0
100
AcDbPolyline
90
4
70
1
43
0.0
10
-15.95744427356944
20
17.294495900551571
10
-13.95744427356944
20
17.294495900551571
10
-13.95744427356944
20
10.294495900551567
10
-15.95744427356944
20
10.294495900551567
0
CIRCLE
5
106
100
AcDbEntity
8
0
100
AcDbCircle
10
44.999999999997016
20
-74.999999999998494
30
0
40
2.9999999999999982
210
-7.8427205690951536e-76
220
9.8607613152626476e-32
230
1
0
CIRCLE
5
107
100
AcDbEntity
8
0
100
AcDbCircle
10
15
20
-50.000000000000284
30
0
40
2.5
210
0
220
-0
230
1
0
LWPOLYLINE
5
108
100
AcDbEntity
8
0
100
AcDbPolyline
90
4
70
1
43
0.0
10
52.103934255543066
20
-25.071941727910541
10
54.103934255543066
20
-25.071941727910541
10
54.103934255543066
20
-32.071941727910541
10
52.103934255543066
20
-32.071941727910541
0
CIRCLE
5
109
100
AcDbEntity
8
0
100
AcDbCircle
10
-70.000000000002927
20
70.000000000001506
30
0
40
2.9999999999999982
210
-7.8427205690951536e-76
220
9.8607613152626476e-32
230
1
0
LWPOLYLINE
5
110
100
AcDbEntity
8
0
100
AcDbPolyline
90
8
70
1
43
0.0
10
-16.466186661179858
20
-43.000000000000291
10
-12.365681597791527
20
-47.10050506338861
10
-12.365681597791518
20
-52.899494936611944
10
-16.466186661179854
20
-57.000000000000277
10
-22.265176534403178
20
-57.00000000000027
10
-26.365681597791507
20
-52.899494936611944
10
-26.365681597791514
20
-47.100505063388624
10
-22.265176534403182
20
-43.000000000000291
0
CIRCLE
5
111
100
AcDbEntity
8
0
100
AcDbCircle
10
41.986219338144423
20
130.88741655324787
30
0
40
1.7500000000000071
210
0
220
-0
230
1
0
LWPOLYLINE
5
112
100
AcDbEntity
8
0
100
AcDbPolyline
90
12
70
1
43
0.0
10
-36.499999999999993
20
37.682458365518258
42
0.31287947253881693
10
-43.944722218342747
20
29.04999999999972
10
-44.849999850988382
20
29.04999999999972
10
-44.849999850988382
20
26.949999999999719
10
-43.944722218342761
20
26.949999999999719
42
0.31287947253881715
10
-36.499999999999993
20
18.317541634481174
10
-36.499999999999993
20
17.674999999999716
10
-31.499999999999993
20
17.674999999999716
10
-31.5
20
18.317541634481177
42
0.77459666924148429
10
-31.5
20
37.682458365518265
10
-31.499999999999993
20
38.324999999999719
10
-36.499999999999993
20
38.324999999999719
0
LWPOLYLINE
5
113
100
AcDbEntity
8
0
100
AcDbPolyline
90
4
70
1
43
0.0
10
14.330912898076287
20
-41.066118937952574
10
21.330912898076289
20
-41.066118937952574
10
21.330912898076289
20
-43.066118937952567
10
14.330912898076287
20
-43.066118937952567
0
LWPOLYLINE
5
114
100
AcDbEntity
8
0
100
AcDbPolyline
90
4
70
1
43
0.0
10
-50.364766161036997
20
-18.250000000000281
42
21.286354881382678
10
-50.364766161037011
20
-16.750000000000284
10
-51.649999999999999
20
-16.750000000000277
10
-51.649999999999999
20
-18.250000000000281
0
LWPOLYLINE
5
115
100
AcDbEntity
8
0
100
AcDbPolyline
90
4
70
1
43
0.0
10
-20.95744427356944
20
17.294495900551571
10
-20.95744427356944
20
10.294495900551571
10
-22.95744427356944
20
10.294495900551571
10
-22.95744427356944
20
17.294495900551571
0
CIRCLE
5
116
100
AcDbEntity
8
0
100
AcDbCircle
10
41.000000000000007
20
50.999999999999758
30
0
40
1.4999999999999991
210
-7.8427205690951536e-76
220
9.8607613152626476e-32
230
1
0
CIRCLE
5
117
100
AcDbEntity
8
0
100
AcDbCircle
10
-70.000000000000028
20
-75.000000000000313
30
0
40
3.0000000000000071
210
-7.8427205690951536e-76
220
9.8607613152626476e-32
230
1
0
LWPOLYLINE
5
118
100
AcDbEntity
8
0
100
AcDbPolyline
90
8
70
1
43
0.0
10
53.277661201806538
20
-52.822968408318545
10
49.177156138418184
20
-56.923473471706878
10
43.378166265194864
20
-56.923473471706878
10
39.277661201806531
20
-52.82296840831853
10
39.277661201806538
20
-47.023978535095203
10
43.378166265194878
20
-42.92347347170687
10
49.177156138418205
20
-42.92347347170687
10
53.277661201806538
20
-47.023978535095225
0
LWPOLYLINE
5
119
100
AcDbEntity
8
0
100
AcDbPolyline
90
4
70
1
43
0.0
10
47.103934255543066
20
54.928058272089459
10
47.103934255543066
20
47.928058272089451
10
45.103934255543059
20
47.928058272089451
10
45.103934255543059
20
54.928058272089459
0
LWPOLYLINE
5
120
100
AcDbEntity
8
0
100
AcDbPolyline
90
4
70
1
43
0.0
10
50.277661201806552
20
-14.707744719168755
10
50.277661201806552
20
15.292255280831245
10
55.277661201806552
20
15.292255280831245
10
55.277661201806552
20
-14.707744719168755
0
CIRCLE
5
121
100
AcDbEntity
8
0
100
AcDbCircle
10
-7.9999999999999938
20
-7.0000000000002585
30
0
40
1.5000000000000002
210
-1.4012984643248171e-45
220
9.8607613152626476e-32
230
1
0
CIRCLE
5
122
100
AcDbEntity
8
0
100
AcDbCircle
10
41.000000000000014
20
-7.0000000000002469
30
0
40
1.5000000000000036
210
-7.8427205690951536e-76
220
9.8607613152626476e-32
230
1
0
CIRCLE
5
123
100
AcDbEntity
8
0
100
AcDbCircle
10
-4.5000000000000018
20
-50.000000000000284
30
0
40
1.7500000000000004
210
7.8427205690951511e-76
220
-9.8607613152626476e-32
230
1
0
LWPOLYLINE
5
124
100
AcDbEntity
8
0
100
AcDbPolyline
90
4
70
1
43
0.0
10
-2.6690871019237159
20
-39.066118937952574
10
4.330912898076285
20
-39.066118937952574
10
4.330912898076285
20
-41.066118937952574
10
-2.6690871019237159
20
-41.066118937952574
0
CIRCLE
5
125
100
AcDbEntity
8
0
100
AcDbCircle
10
10.121401151044918
20
-113.32794787347535
30
0
40
2.0000000000000062
210
-7.8427205690951511e-76
220
9.8607613152626476e-32
230
1
0
CIRCLE
5
126
100
AcDbEntity
8
0
100
AcDbCircle
10
-10.278598848955083
20
-113.32794787347541
30
0
40
1.9999999999999996
210
1.4012984643248171e-45
220
1.1145176257933757e-89
230
1
0
CIRCLE
5
127
100
AcDbEntity
8
0
100
AcDbCircle
10
-31.781537563720708
20
129.88741655324782
30
0
40
2.7499999999999991
210
0
220
-0
230
1
0
CIRCLE
5
128
100
AcDbEntity
8
0
100
AcDbCircle
10
34.5
20
-50.000000000000284
30
0
40
1.7500000000000027
210
0
220
-0
230
1
0
LWPOLYLINE
5
129
100
AcDbEntity
8
0
100
AcDbPolyline
90
4
70
1
43
0.0
10
21.330912898076289
20
-9.0661189379525684
10
21.330912898076289
20
-11.06611893795256
10
14.330912898076287
20
-11.06611893795256
10
14.330912898076287
20
-9.0661189379525666
0
CIRCLE
5
130
100
AcDbEntity
8
0
100
AcDbCircle
10
-70.000000000002984
20
-44.999999999998494
30
0
40
3.0000000000000071
210
-7.8427205690951536e-76
220
9.8607613152626476e-32
230
1
0
LWPOLYLINE
5
131
100
AcDbEntity
8
0
100
AcDbPolyline
90
4
70
1
43
0.0
10
25.999999836087227
20
-30.000000447035116
10
23.999999836087227
20
-30.000000447035116
10
23.999999836087227
20
-23.000000447035113
10
25.999999836087227
20
-23.000000447035113
0
LWPOLYLINE
5
132
100
AcDbEntity
8
0
100
AcDbPolyline
90
4
70
1
43
0.0
10
13.52140115104487
20
-102.52794787347533
10
-13.678598848955133
20
-102.52794787347533
10
-13.678598848955133
20
-98.727947873475415
10
13.52140115104487
20
-98.727947873475316
0
LWPOLYLINE
5
133
100
AcDbEntity
8
0
100
AcDbPolyline
90
4
70
1
43
0.0
10
45.103934255543059
20
-32.071941727910541
10
45.103934255543059
20
-25.071941727910541
10
47.103934255543066
20
-25.071941727910541
10
47.103934255543066
20
-32.071941727910541
0
LWPOLYLINE
5
134
100
AcDbEntity
8
0
100
AcDbPolyline
90
4
70
1
43
0.0
10
15
20
57.792255280831249
10
14.999999999999996
20
54.79225528083127
10
-15
20
54.79225528083127
10
-15
20
57.792255280831256
0
LWPOLYLINE
5
135
100
AcDbEntity
8
0
100
AcDbPolyline
90
4
70
1
43
0.0
10
54.103934255543066
20
54.928058272089459
10
54.103934255543066
20
47.928058272089451
10
52.103934255543066
20
47.928058272089451
10
52.103934255543066
20
54.928058272089459
0
LWPOLYLINE
5
136
100
AcDbEntity
8
0
100
AcDbPolyline
90
4
70
1
43
0.0
10
-13.000000163912773
20
-30.000000447035116
10
-13.000000163912773
20
-23.000000447035113
10
-11.000000163912773
20
-23.000000447035113
10
-11.000000163912773
20
-30.000000447035116
0
LWPOLYLINE
5
137
100
AcDbEntity
8
0
100
AcDbPolyline
90
4
70
1
43
0.0
10
4.330912898076285
20
-12.06611893795257
10
4.330912898076285
20
-14.066118937952567
10
-2.6690871019237159
20
-14.066118937952567
10
-2.6690871019237159
20
-12.06611893795257
0
CIRCLE
5
138
100
AcDbEntity
8
0
100
AcDbCircle
10
71.499999999997016
20
-74.999999999998494
30
0
40
3.499999999999996
210
-1.4012984643248174e-45
220
-1.1145176257933761e-89
230
1
0
LWPOLYLINE
5
139
100
AcDbEntity
8
0
100
AcDbPolyline
90
4
70
1
43
0.0
10
-4.4098469440207184
20
-64.803393217601965
10
34.629379503015912
20
-64.96136462243436
10
34.65997349971029
20
-57.400718022253578
10
-4.3792529473263366
20
-57.242746617421162
0
SPLINE
5
140
100
AcDbEntity
8
0
100
AcDbSpline
70
0
71
2
72
6
73
3
74
0
42
0.000000001
43
0.0000000001
44
0.0000000001
40
0
40
0
40
0
40
1
40
1
40
1
10
5.4420944502847126
20
-61.919226307932327
30
0
10
5.4397580094857032
20
-62.496627271919365
30
0
10
5.0200649925397789
20
-62.812923568353163
30
0
0
SPLINE
5
141
100
AcDbEntity
8
0
100
AcDbSpline
70
0
71
2
72
6
73
3
74
0
42
0.000000001
43
0.0000000001
44
0.0000000001
40
0
40
0
40
0
40
1
40
1
40
1
10
5.0200649925397789
20
-62.812923568353163
30
0
10
4.6003713819641581
20
-63.129219266333536
30
0
10
3.8221348076864148
20
-63.126070148481581
30
0
0
SPLINE
5
142
100
AcDbEntity
8
0
100
AcDbSpline
70
0
71
2
72
6
73
3
74
0
42
0.000000001
43
0.0000000001
44
0.0000000001
40
0
40
0
40
0
40
1
40
1
40
1
10
3.8221348076864148
20
-63.126070148481581
30
0
10
3.5320401844653793
20
-63.124896286719057
30
0
10
3.247720843122921
20
-63.074930978939143
30
0
0
SPLINE
5
143
100
AcDbEntity
8
0
100
AcDbSpline
70
0
71
2
72
6
73
3
74
0
42
0.000000001
43
0.0000000001
44
0.0000000001
40
0
40
0
40
0
40
1
40
1
40
1
10
3.247720843122921
20
-63.074930978939143
30
0
10
2.9634020978220308
20
-63.024965673571096
30
0
10
2.7601043422890417
20
-62.943249331527852
30
0
0
LINE
5
144
100
AcDbEntity
8
0
100
AcDbLine
10
2.7601043422890417
20
-62.943249331527852
30
0
11
2.7638742512596925
21
-62.011597618066652
31
0
0
SPLINE
5
145
100
AcDbEntity
8
0
100
AcDbSpline
70
0
71
2
72
6
73
3
74
0
42
0.000000001
43
0.0000000001
44
0.0000000001
40
0
40
0
40
0
40
1
40
1
40
1
10
2.7638742512596925
20
-62.011597618066652
30
0
10
2.950311599793384
20
-62.123928669018269
30
0
10
3.1899384590845816
20
-62.189055490785506
30
0
0
SPLINE
5
146
100
AcDbEntity
8
0
100
AcDbSpline
70
0
71
2
72
6
73
3
74
0
42
0.000000001
43
0.0000000001
44
0.0000000001
40
0
40
0
40
0
40
1
40
1
40
1
10
3.1899384590845816
20
-62.189055490785506
30
0
10
3.4295653207876509
20
-62.254181716511177
30
0
10
3.6750301395227361
20
-62.255174984712973
30
0
0
SPLINE
5
147
100
AcDbEntity
8
0
100
AcDbSpline
70
0
71
2
72
6
73
3
74
0
42
0.000000001
43
0.0000000001
44
0.0000000001
40
0
40
0
40
0
40
1
40
1
40
1
10
3.6750301395227361
20
-62.255174984712973
30
0
10
3.9595470057505757
20
-62.256326276199687
30
0
10
4.1119799848019278
20
-62.155129181561726
30
0
0
SPLINE
5
148
100
AcDbEntity
8
0
100
AcDbSpline
70
0
71
2
72
6
73
3
74
0
42
0.000000001
43
0.0000000001
44
0.0000000001
40
0
40
0
40
0
40
1
40
1
40
1
10
4.1119799848019278
20
-62.155129181561726
30
0
10
4.2644129638532817
20
-62.053932086923766
30
0
10
4.2651804907071353
20
-61.864254374785723
30
0
0
SPLINE
5
149
100
AcDbEntity
8
0
100
AcDbSpline
70
0
71
2
72
6
73
3
74
0
42
0.000000001
43
0.0000000001
44
0.0000000001
40
0
40
0
40
0
40
1
40
1
40
1
10
4.2651804907071353
20
-61.864254374785723
30
0
10
4.265959305110762
20
-61.671787188109519
30
0
10
4.0795112674807381
20
-61.562245018066371
30
0
0
SPLINE
5
150
100
AcDbEntity
8
0
100
AcDbSpline
70
0
71
2
72
6
73
3
74
0
42
0.000000001
43
0.0000000001
44
0.0000000001
40
0
40
0
40
0
40
1
40
1
40
1
10
4.0795112674807381
20
-61.562245018066371
30
0
10
3.8930632298507142
20
-61.452702848023222
30
0
10
3.5583376100605912
20
-61.451348387876237
30
0
0
LINE
5
151
100
AcDbEntity
8
0
100
AcDbLine
10
3.5583376100605912
20
-61.451348387876237
30
0
11
3.1734038327497527
21
-61.449790761480855
31
0
0
LINE
5
152
100
AcDbEntity
8
0
100
AcDbLine
10
3.1734038327497527
20
-61.449790761480855
30
0
11
3.1769479979605948
21
-60.573926750658281
31
0
0
LINE
5
153
100
AcDbEntity
8
0
100
AcDbLine
10
3.1769479979605943
20
-60.573926750658281
30
0
11
3.5172519707854812
21
-60.575303783492942
31
0
0
SPLINE
5
154
100
AcDbEntity
8
0
100
AcDbSpline
70
0
71
2
72
6
73
3
74
0
42
0.000000001
43
0.0000000001
44
0.0000000001
40
0
40
0
40
0
40
1
40
1
40
1
10
3.5172519707854812
20
-60.575303783492942
30
0
10
3.854766469072203
20
-60.576669528777821
30
0
10
4.0155791592878245
20
-60.472716822251009
30
0
0
SPLINE
5
155
100
AcDbEntity
8
0
100
AcDbSpline
70
0
71
2
72
6
73
3
74
0
42
0.000000001
43
0.0000000001
44
0.0000000001
40
0
40
0
40
0
40
1
40
1
40
1
10
4.0155791592878245
20
-60.472716822251009
30
0
10
4.1763912534618779
20
-60.368764113312324
30
0
10
4.1770684823294353
20
-60.201401601438043
30
0
0
SPLINE
5
156
100
AcDbEntity
8
0
100
AcDbSpline
70
0
71
2
72
6
73
3
74
0
42
0.000000001
43
0.0000000001
44
0.0000000001
40
0
40
0
40
0
40
1
40
1
40
1
10
4.1770684823294353
20
-60.201401601438043
30
0
10
4.1777118509595503
20
-60.042406917136695
30
0
10
4.056746953964967
20
-59.949866248464986
30
0
0
SPLINE
5
157
100
AcDbEntity
8
0
100
AcDbSpline
70
0
71
2
72
6
73
3
74
0
42
0.000000001
43
0.0000000001
44
0.0000000001
40
0
40
0
40
0
40
1
40
1
40
1
10
4.056746953964967
20
-59.949866248464986
30
0
10
3.9357814597228802
20
-59.857325875402189
30
0
10
3.6847370958698966
20
-59.856310029688977
30
0
0
SPLINE
5
158
100
AcDbEntity
8
0
100
AcDbSpline
70
0
71
2
72
6
73
3
74
0
42
0.000000001
43
0.0000000001
44
0.0000000001
40
0
40
0
40
0
40
1
40
1
40
1
10
3.6847370958698966
20
-59.856310029688977
30
0
10
3.297013844020892
20
-59.854741115743828
30
0
10
2.9083870235029528
20
-60.076322413899696
30
0
0
LINE
5
159
100
AcDbEntity
8
0
100
AcDbLine
10
2.9083870235029528
20
-60.076322413899696
30
0
11
2.9119876264626492
21
-59.186511030386285
31
0
0
SPLINE
5
160
100
AcDbEntity
8
0
100
AcDbSpline
70
0
71
2
72
6
73
3
74
0
42
0.000000001
43
0.0000000001
44
0.0000000001
40
0
40
0
40
0
40
1
40
1
40
1
10
2.9119876264626487
20
-59.186511030386285
30
0
10
3.3981521827866255
20
-58.987639684244158
30
0
10
3.9337128168258815
20
-58.989806819032218
30
0
0
SPLINE
5
161
100
AcDbEntity
8
0
100
AcDbSpline
70
0
71
2
72
6
73
3
74
0
42
0.000000001
43
0.0000000001
44
0.0000000001
40
0
40
0
40
0
40
1
40
1
40
1
10
3.9337128168258815
20
-58.989806819032218
30
0
10
4.5975845112882272
20
-58.992493161814778
30
0
10
4.9730556060823394
20
-59.264586719530506
30
0
0
SPLINE
5
162
100
AcDbEntity
8
0
100
AcDbSpline
70
0
71
2
72
6
73
3
74
0
42
0.000000001
43
0.0000000001
44
0.0000000001
40
0
40
0
40
0
40
1
40
1
40
1
10
4.9730556060823394
20
-59.264586719530506
30
0
10
5.3485267020823848
20
-59.536679979225454
30
0
10
5.3465853110541381
20
-60.016452910626093
30
0
0
SPLINE
5
163
100
AcDbEntity
8
0
100
AcDbSpline
70
0
71
2
72
6
73
3
74
0
42
0.000000001
43
0.0000000001
44
0.0000000001
40
0
40
0
40
0
40
1
40
1
40
1
10
5.3465853110541381
20
-60.016452910626093
30
0
10
5.3450728312400351
20
-60.390229683846627
30
0
10
5.1418159488707111
20
-60.643244607780254
30
0
0
SPLINE
5
164
100
AcDbEntity
8
0
100
AcDbSpline
70
0
71
2
72
6
73
3
74
0
42
0.000000001
43
0.0000000001
44
0.0000000001
40
0
40
0
40
0
40
1
40
1
40
1
10
5.1418159488707111
20
-60.643244607780254
30
0
10
4.9385590665013881
20
-60.896259531713881
30
0
10
4.5728343771284692
20
-60.972883816245528
30
0
0
LINE
5
165
100
AcDbEntity
8
0
100
AcDbLine
10
4.5728343771284692
20
-60.972883816245528
30
0
11
4.5727779417914851
21
-60.98683059289479
31
0
0
SPLINE
5
166
100
AcDbEntity
8
0
100
AcDbSpline
70
0
71
2
72
6
73
3
74
0
42
0.000000001
43
0.0000000001
44
0.0000000001
40
0
40
0
40
0
40
1
40
1
40
1
10
4.5727779417914842
20
-60.98683059289479
30
0
10
4.9770122995215447
20
-61.04425433873562
30
0
10
5.2102983266574405
20
-61.297641560272268
30
0
0
SPLINE
5
167
100
AcDbEntity
8
0
100
AcDbSpline
70
0
71
2
72
6
73
3
74
0
42
0.000000001
43
0.0000000001
44
0.0000000001
40
0
40
0
40
0
40
1
40
1
40
1
10
5.2102983266574405
20
-61.297641560272268
30
0
10
5.443584356205208
20
-61.55102818576735
30
0
10
5.4420944502847126
20
-61.919226307932327
30
0
0
SPLINE
5
168
100
AcDbEntity
8
0
100
AcDbSpline
70
0
71
2
72
6
73
3
74
0
42
0.000000001
43
0.0000000001
44
0.0000000001
40
0
40
0
40
0
40
1
40
1
40
1
10
9.2049673691809755
20
-61.044626740403586
30
0
10
9.2008024080276893
20
-62.073907082492745
30
0
10
8.8067227642619326
20
-62.609276014901582
30
0
0
SPLINE
5
169
100
AcDbEntity
8
0
100
AcDbSpline
70
0
71
2
72
6
73
3
74
0
42
0.000000001
43
0.0000000001
44
0.0000000001
40
0
40
0
40
0
40
1
40
1
40
1
10
8.8067227642619326
20
-62.609276014901582
30
0
10
8.4126419260011733
20
-63.144645538528231
30
0
10
7.6595100265253571
20
-63.141598006212348
30
0
0
SPLINE
5
170
100
AcDbEntity
8
0
100
AcDbSpline
70
0
71
2
72
6
73
3
74
0
42
0.000000001
43
0.0000000001
44
0.0000000001
40
0
40
0
40
0
40
1
40
1
40
1
10
7.6595100265253571
20
-63.141598006212348
30
0
10
6.8896412798205429
20
-63.138482748597852
30
0
10
6.5108889446406168
20
-62.643222343065347
30
0
0
SPLINE
5
171
100
AcDbEntity
8
0
100
AcDbSpline
70
0
71
2
72
6
73
3
74
0
42
0.000000001
43
0.0000000001
44
0.0000000001
40
0
40
0
40
0
40
1
40
1
40
1
10
6.5108889446406168
20
-62.643222343065347
30
0
10
6.132137803955696
20
-62.147961346315022
30
0
10
6.1363253377966522
20
-61.113102651191099
30
0
0
SPLINE
5
172
100
AcDbEntity
8
0
100
AcDbSpline
70
0
71
2
72
6
73
3
74
0
42
0.000000001
43
0.0000000001
44
0.0000000001
40
0
40
0
40
0
40
1
40
1
40
1
10
6.1363253377966522
20
-61.113102651191099
30
0
10
6.1405241603933138
20
-60.075454183508228
30
0
10
6.5541357709070516
20
-59.538769228657927
30
0
0
SPLINE
5
173
100
AcDbEntity
8
0
100
AcDbSpline
70
0
71
2
72
6
73
3
74
0
42
0.000000001
43
0.0000000001
44
0.0000000001
40
0
40
0
40
0
40
1
40
1
40
1
10
6.5541357709070516
20
-59.538769228657927
30
0
10
6.9677473826267242
20
-59.002083975786839
30
0
10
7.7459833608628994
20
-59.005233091226913
30
0
0
SPLINE
5
174
100
AcDbEntity
8
0
100
AcDbSpline
70
0
71
2
72
6
73
3
74
0
42
0.000000001
43
0.0000000001
44
0.0000000001
40
0
40
0
40
0
40
1
40
1
40
1
10
7.7459833608628994
20
-59.005233091226913
30
0
10
9.2131957083633456
20
-59.011170134985626
30
0
10
9.2049673691809755
20
-61.044626740403586
30
0
0
SPLINE
5
175
100
AcDbEntity
8
0
100
AcDbSpline
70
0
71
2
72
6
73
3
74
0
42
0.000000001
43
0.0000000001
44
0.0000000001
40
0
40
0
40
0
40
1
40
1
40
1
10
8.0334285939778969
20
-61.03988613350694
30
0
10
8.0358440476253019
20
-60.442958847752735
30
0
10
7.9533134847214413
20
-60.158103960720823
30
0
0
SPLINE
5
176
100
AcDbEntity
8
0
100
AcDbSpline
70
0
71
2
72
6
73
3
74
0
42
0.000000001
43
0.0000000001
44
0.0000000001
40
0
40
0
40
0
40
1
40
1
40
1
10
7.9533134847214413
20
-60.158103960720823
30
0
10
7.8707841151066535
20
-59.873248780491856
30
0
10
7.6838952814652153
20
-59.872492538775901
30
0
0
SPLINE
5
177
100
AcDbEntity
8
0
100
AcDbSpline
70
0
71
2
72
6
73
3
74
0
42
0.000000001
43
0.0000000001
44
0.0000000001
40
0
40
0
40
0
40
1
40
1
40
1
10
7.6838952814652153
20
-59.872492538775901
30
0
10
7.3184872298799695
20
-59.871013922817042
30
0
10
7.3135434555289933
20
-61.092761153561625
30
0
0
SPLINE
5
178
100
AcDbEntity
8
0
100
AcDbSpline
70
0
71
2
72
6
73
3
74
0
42
0.000000001
43
0.0000000001
44
0.0000000001
40
0
40
0
40
0
40
1
40
1
40
1
10
7.3135434555289933
20
-61.092761153561625
30
0
10
7.3111167143318188
20
-61.692477913853992
30
0
10
7.3950250855919739
20
-61.981522060426485
30
0
0
SPLINE
5
179
100
AcDbEntity
8
0
100
AcDbSpline
70
0
71
2
72
6
73
3
74
0
42
0.000000001
43
0.0000000001
44
0.0000000001
40
0
40
0
40
0
40
1
40
1
40
1
10
7.3950250855919739
20
-61.981522060426485
30
0
10
7.4789322599452532
20
-62.270567394258364
30
0
10
7.6630316190485273
20
-62.271312348424544
30
0
0
SPLINE
5
180
100
AcDbEntity
8
0
100
AcDbSpline
70
0
71
2
72
6
73
3
74
0
42
0.000000001
43
0.0000000001
44
0.0000000001
40
0
40
0
40
0
40
1
40
1
40
1
10
7.6630316190485273
20
-62.271312348424544
30
0
10
8.0284396706337731
20
-62.272790964383404
30
0
10
8.0334285939778969
20
-61.03988613350694
30
0
0
LINE
5
181
100
AcDbEntity
8
0
100
AcDbLine
10
14.073741874958777
20
-63.097817438720448
30
0
11
13.900991940982264
21
-62.360710703738931
31
0
0
LINE
5
182
100
AcDbEntity
8
0
100
AcDbLine
10
13.900991940982266
20
-62.360710703738931
30
0
11
12.707137369473859
21
-62.355879796444128
31
0
0
LINE
5
183
100
AcDbEntity
8
0
100
AcDbLine
10
12.707137369473859
20
-62.355879796444128
30
0
11
12.514480443948266
21
-63.091507920290525
31
0
0
LINE
5
184
100
AcDbEntity
8
0
100
AcDbLine
10
12.514480443948264
20
-63.091507920290525
30
0
11
11.211841133783928
21
-63.08623681784961
31
0
0
LINE
5
185
100
AcDbEntity
8
0
100
AcDbLine
10
11.211841133783928
20
-63.08623681784961
30
0
11
12.60597965671832
21
-59.091845064442225
31
0
0
LINE
5
186
100
AcDbEntity
8
0
100
AcDbLine
10
12.60597965671832
20
-59.091845064442211
30
0
11
14.10108555751729
21
-59.097894978874891
31
0
0
LINE
5
187
100
AcDbEntity
8
0
100
AcDbLine
10
14.101085557517292
20
-59.097894978874891
30
0
11
15.381960134199449
21
-63.103111116260912
31
0
0
LINE
5
188
100
AcDbEntity
8
0
100
AcDbLine
10
15.381960134199449
20
-63.103111116260912
30
0
11
14.073741874958781
21
-63.097817438720448
31
0
0
LINE
5
189
100
AcDbEntity
8
0
100
AcDbLine
10
13.327696409166512
20
-59.965065681892725
30
0
11
13.299802855867988
21
-59.964952811218751
31
0
0
SPLINE
5
190
100
AcDbEntity
8
0
100
AcDbSpline
70
0
71
2
72
6
73
3
74
0
42
0.000000001
43
0.0000000001
44
0.0000000001
40
0
40
0
40
0
40
1
40
1
40
1
10
13.299802855867986
20
-59.964952811218751
30
0
10
13.293953015244631
20
-60.031875240868928
30
0
10
13.259859720545135
20
-60.185155232299643
30
0
0
SPLINE
5
191
100
AcDbEntity
8
0
100
AcDbSpline
70
0
71
2
72
6
73
3
74
0
42
0.000000001
43
0.0000000001
44
0.0000000001
40
0
40
0
40
0
40
1
40
1
40
1
10
13.259859720545135
20
-60.185155232299643
30
0
10
13.22576642222784
20
-60.338436117792718
30
0
10
12.917016489985507
20
-61.500376165046184
30
0
0
LINE
5
192
100
AcDbEntity
8
0
100
AcDbLine
10
12.917016489985507
20
-61.500376165046184
30
0
11
13.681306287613989
21
-61.503468847561145
31
0
0
LINE
5
193
100
AcDbEntity
8
0
100
AcDbLine
10
13.681306287613989
20
-61.503468847561145
30
0
11
13.406770360513477
21
-60.414483207949594
31
0
0
SPLINE
5
194
100
AcDbEntity
8
0
100
AcDbSpline
70
0
71
2
72
6
73
3
74
0
42
0.000000001
43
0.0000000001
44
0.0000000001
40
0
40
0
40
0
40
1
40
1
40
1
10
13.406770360513477
20
-60.414483207949594
30
0
10
13.349164477304253
20
-60.174359117309997
30
0
10
13.327696409166512
20
-59.965065681892725
30
0
0
LINE
5
195
100
AcDbEntity
8
0
100
AcDbLine
10
19.551270902248778
20
-63.11998214417703
30
0
11
19.557930325074125
21
-61.474249386649646
31
0
0
SPLINE
5
196
100
AcDbEntity
8
0
100
AcDbSpline
70
0
71
2
72
6
73
3
74
0
42
0.000000001
43
0.0000000001
44
0.0000000001
40
0
40
0
40
0
40
1
40
1
40
1
10
19.557930325074121
20
-61.474249386649646
30
0
10
19.558765574814736
20
-61.267835423324179
30
0
10
19.48525886481503
20
-61.165724068509078
30
0
0
SPLINE
5
197
100
AcDbEntity
8
0
100
AcDbSpline
70
0
71
2
72
6
73
3
74
0
42
0.000000001
43
0.0000000001
44
0.0000000001
40
0
40
0
40
0
40
1
40
1
40
1
10
19.48525886481503
20
-61.165724068509078
30
0
10
19.411752154815325
20
-61.063612713693978
30
0
10
19.244390835024184
20
-61.062935489650165
30
0
0
SPLINE
5
198
100
AcDbEntity
8
0
100
AcDbSpline
70
0
71
2
72
6
73
3
74
0
42
0.000000001
43
0.0000000001
44
0.0000000001
40
0
40
0
40
0
40
1
40
1
40
1
10
19.244390835024184
20
-61.062935489650165
30
0
10
19.07981660560494
20
-61.062269543508634
30
0
10
18.987266435096288
20
-61.186024518318561
30
0
0
SPLINE
5
199
100
AcDbEntity
8
0
100
AcDbSpline
70
0
71
2
72
6
73
3
74
0
42
0.000000001
43
0.0000000001
44
0.0000000001
40
0
40
0
40
0
40
1
40
1
40
1
10
18.987266435096288
20
-61.186024518318561
30
0
10
18.894713882833237
20
-61.309778887439435
30
0
10
18.893822195343766
20
-61.530140223455732
30
0
0
LINE
5
200
100
AcDbEntity
8
0
100
AcDbLine
10
18.893822195343766
20
-61.530140223455732
30
0
11
18.887399803828004
21
-63.117295803806343
31
0
0
LINE
5
201
100
AcDbEntity
8
0
100
AcDbLine
10
18.887399803828004
20
-63.117295803806343
30
0
11
17.699124181395931
21
-63.112487471611075
31
0
0
LINE
5
202
100
AcDbEntity
8
0
100
AcDbLine
10
17.699124181395931
20
-63.112487471611075
30
0
11
17.705670733547304
21
-61.49464826738221
31
0
0
SPLINE
5
203
100
AcDbEntity
8
0
100
AcDbSpline
70
0
71
2
72
6
73
3
74
0
42
0.000000001
43
0.0000000001
44
0.0000000001
40
0
40
0
40
0
40
1
40
1
40
1
10
17.705670733547304
20
-61.49464826738221
30
0
10
17.707442816152724
20
-61.056716261970926
30
0
10
17.408978577234056
20
-61.055508532735345
30
0
0
SPLINE
5
204
100
AcDbEntity
8
0
100
AcDbSpline
70
0
71
2
72
6
73
3
74
0
42
0.000000001
43
0.0000000001
44
0.0000000001
40
0
40
0
40
0
40
1
40
1
40
1
10
17.408978577234056
20
-61.055508532735345
30
0
10
17.227669884752082
20
-61.05477487094268
30
0
10
17.13510604252739
20
-61.181319310643289
30
0
0
SPLINE
5
205
100
AcDbEntity
8
0
100
AcDbSpline
70
0
71
2
72
6
73
3
74
0
42
0.000000001
43
0.0000000001
44
0.0000000001
40
0
40
0
40
0
40
1
40
1
40
1
10
17.13510604252739
20
-61.181319310643289
30
0
10
17.04254458688084
20
-61.307863163949811
30
0
10
17.041585178916488
20
-61.544960155111966
30
0
0
LINE
5
206
100
AcDbEntity
8
0
100
AcDbLine
10
17.041585178916488
20
-61.544960155111966
30
0
11
17.035253082975149
21
-63.109801131240381
31
0
0
LINE
5
207
100
AcDbEntity
8
0
100
AcDbLine
10
17.035253082975149
20
-63.109801131240381
30
0
11
15.846977460543075
21
-63.104992799045114
31
0
0
LINE
5
208
100
AcDbEntity
8
0
100
AcDbLine
10
15.846977460543075
20
-63.104992799045114
30
0
11
15.858535508726249
21
-60.248670410905021
31
0
0
LINE
5
209
100
AcDbEntity
8
0
100
AcDbLine
10
15.858535508726245
20
-60.248670410905028
30
0
11
17.046811131158321
21
-60.253478743100295
31
0
0
LINE
5
210
100
AcDbEntity
8
0
100
AcDbLine
10
17.046811131158321
20
-60.253478743100295
30
0
11
17.044982613215915
21
-60.705357525160849
31
0
0
LINE
5
211
100
AcDbEntity
8
0
100
AcDbLine
10
17.044982613215915
20
-60.705357525160849
30
0
11
17.056140511368579
21
-60.705402675359927
31
0
0
SPLINE
5
212
100
AcDbEntity
8
0
100
AcDbSpline
70
0
71
2
72
6
73
3
74
0
42
0.000000001
43
0.0000000001
44
0.0000000001
40
0
40
0
40
0
40
1
40
1
40
1
10
17.056140511368575
20
-60.705402675359927
30
0
10
17.123568479709085
20
-60.585730324409319
30
0
10
17.270515785466372
20
-60.462196062508966
30
0
0
SPLINE
5
213
100
AcDbEntity
8
0
100
AcDbSpline
70
0
71
2
72
6
73
3
74
0
42
0.000000001
43
0.0000000001
44
0.0000000001
40
0
40
0
40
0
40
1
40
1
40
1
10
17.270515785466372
20
-60.462196062508966
30
0
10
17.417458327714854
20
-60.338660589230528
30
0
10
17.601869274460611
20
-60.262697978628729
30
0
0
SPLINE
5
214
100
AcDbEntity
8
0
100
AcDbSpline
70
0
71
2
72
6
73
3
74
0
42
0.000000001
43
0.0000000001
44
0.0000000001
40
0
40
0
40
0
40
1
40
1
40
1
10
17.601869274460611
20
-60.262697978628729
30
0
10
17.786277837040103
20
-60.186735358379444
30
0
10
18.001060223980065
20
-60.187604470769365
30
0
0
SPLINE
5
215
100
AcDbEntity
8
0
100
AcDbSpline
70
0
71
2
72
6
73
3
74
0
42
0.000000001
43
0.0000000001
44
0.0000000001
40
0
40
0
40
0
40
1
40
1
40
1
10
18.001060223980065
20
-60.187604470769365
30
0
10
18.305103411975065
20
-60.188834775104489
30
0
10
18.512426767224422
20
-60.309618305428572
30
0
0
SPLINE
5
216
100
AcDbEntity
8
0
100
AcDbSpline
70
0
71
2
72
6
73
3
74
0
42
0.000000001
43
0.0000000001
44
0.0000000001
40
0
40
0
40
0
40
1
40
1
40
1
10
18.512426767224422
20
-60.309618305428572
30
0
10
18.719747733483768
20
-60.430403018188315
30
0
10
18.858166988520743
20
-60.690378971766251
30
0
0
SPLINE
5
217
100
AcDbEntity
8
0
100
AcDbSpline
70
0
71
2
72
6
73
3
74
0
42
0.000000001
43
0.0000000001
44
0.0000000001
40
0
40
0
40
0
40
1
40
1
40
1
10
18.858166988520743
20
-60.690378971766251
30
0
10
19.009764540763282
20
-60.451102014458598
30
0
10
19.261334948468793
20
-60.322412067303375
30
0
0
SPLINE
5
218
100
AcDbEntity
8
0
100
AcDbSpline
70
0
71
2
72
6
73
3
74
0
42
0.000000001
43
0.0000000001
44
0.0000000001
40
0
40
0
40
0
40
1
40
1
40
1
10
19.261334948468793
20
-60.322412067303375
30
0
10
19.512902972008032
20
-60.193722110500673
30
0
10
19.819733250374931
20
-60.194963692738085
30
0
0
SPLINE
5
219
100
AcDbEntity
8
0
100
AcDbSpline
70
0
71
2
72
6
73
3
74
0
42
0.000000001
43
0.0000000001
44
0.0000000001
40
0
40
0
40
0
40
1
40
1
40
1
10
19.819733250374931
20
-60.194963692738085
30
0
10
20.268824346022015
20
-60.196780930366323
30
0
10
20.507524470326906
20
-60.490635718815902
30
0
0
SPLINE
5
220
100
AcDbEntity
8
0
100
AcDbSpline
70
0
71
2
72
6
73
3
74
0
42
0.000000001
43
0.0000000001
44
0.0000000001
40
0
40
0
40
0
40
1
40
1
40
1
10
20.507524470326906
20
-60.490635718815902
30
0
10
20.746226973974334
20
-60.784491708996107
30
0
10
20.743992118711393
20
-61.336787998181222
30
0
0
LINE
5
221
100
AcDbEntity
8
0
100
AcDbLine
10
20.743992118711393
20
-61.336787998181222
30
0
11
20.736757050142689
21
-63.124779188822529
31
0
0
LINE
5
222
100
AcDbEntity
8
0
100
AcDbLine
10
20.736757050142689
20
-63.124779188822529
30
0
11
19.551270902248781
21
-63.11998214417703
31
0
0
SPLINE
5
223
100
AcDbEntity
8
0
100
AcDbSpline
70
0
71
2
72
6
73
3
74
0
42
0.000000001
43
0.0000000001
44
0.0000000001
40
0
40
0
40
0
40
1
40
1
40
1
10
24.60815355506622
20
-61.625788285878969
30
0
10
24.606257314237059
20
-62.094403319126947
30
0
10
24.445805990622958
20
-62.453589646635443
30
0
0
SPLINE
5
224
100
AcDbEntity
8
0
100
AcDbSpline
70
0
71
2
72
6
73
3
74
0
42
0.000000001
43
0.0000000001
44
0.0000000001
40
0
40
0
40
0
40
1
40
1
40
1
10
24.445805990622958
20
-62.453589646635443
30
0
10
24.285357051175129
20
-62.812775983791418
30
0
10
23.994459848779659
20
-63.00964765691613
30
0
0
SPLINE
5
225
100
AcDbEntity
8
0
100
AcDbSpline
70
0
71
2
72
6
73
3
74
0
42
0.000000001
43
0.0000000001
44
0.0000000001
40
0
40
0
40
0
40
1
40
1
40
1
10
23.994459848779659
20
-63.00964765691613
30
0
10
23.703562643972319
20
-63.2065199260824
30
0
10
23.340942874842106
20
-63.205052592849576
30
0
0
SPLINE
5
226
100
AcDbEntity
8
0
100
AcDbSpline
70
0
71
2
72
6
73
3
74
0
42
0.000000001
43
0.0000000001
44
0.0000000001
40
0
40
0
40
0
40
1
40
1
40
1
10
23.340942874842106
20
-63.205052592849576
30
0
10
22.838856531302408
20
-63.203020911070638
30
0
10
22.580923554288788
20
-62.836562559905047
30
0
0
LINE
5
227
100
AcDbEntity
8
0
100
AcDbLine
10
22.580923554288788
20
-62.836562559905047
30
0
11
22.569765656136124
21
-62.836517409705969
31
0
0
LINE
5
228
100
AcDbEntity
8
0
100
AcDbLine
10
22.569765656136124
20
-62.836517409705969
30
0
11
22.563252966634057
21
-64.445988190320335
31
0
0
LINE
5
229
100
AcDbEntity
8
0
100
AcDbLine
10
22.563252966634057
20
-64.445988190320335
30
0
11
21.37497734420198
21
-64.441179858125068
31
0
0
LINE
5
230
100
AcDbEntity
8
0
100
AcDbLine
10
21.37497734420198
20
-64.441179858125068
30
0
11
21.39185164261329
21
-60.271060857709543
31
0
0
LINE
5
231
100
AcDbEntity
8
0
100
AcDbLine
10
21.39185164261329
20
-60.271060857709543
30
0
11
22.580127265045363
21
-60.27586918990481
31
0
0
LINE
5
232
100
AcDbEntity
8
0
100
AcDbLine
10
22.580127265045363
20
-60.27586918990481
30
0
11
22.578558351100209
21
-60.663592441753813
31
0
0
LINE
5
233
100
AcDbEntity
8
0
100
AcDbLine
10
22.578558351100213
20
-60.663592441753821
30
0
11
22.589716249252877
21
-60.663637591952906
31
0
0
SPLINE
5
234
100
AcDbEntity
8
0
100
AcDbSpline
70
0
71
2
72
6
73
3
74
0
42
0.000000001
43
0.0000000001
44
0.0000000001
40
0
40
0
40
0
40
1
40
1
40
1
10
22.589716249252877
20
-60.663637591952906
30
0
10
22.732841408178576
20
-60.449431437150388
30
0
10
22.959272687215023
20
-60.329007133578585
30
0
0
SPLINE
5
235
100
AcDbEntity
8
0
100
AcDbSpline
70
0
71
2
72
6
73
3
74
0
42
0.000000001
43
0.0000000001
44
0.0000000001
40
0
40
0
40
0
40
1
40
1
40
1
10
22.959272687215023
20
-60.329007133578585
30
0
10
23.185703961427727
20
-60.208584022089923
30
0
10
23.473010302193732
20
-60.209746601126412
30
0
0
SPLINE
5
236
100
AcDbEntity
8
0
100
AcDbSpline
70
0
71
2
72
6
73
3
74
0
42
0.000000001
43
0.0000000001
44
0.0000000001
40
0
40
0
40
0
40
1
40
1
40
1
10
23.473010302193732
20
-60.209746601126412
30
0
10
24.025307187420417
20
-60.211981458801212
30
0
10
24.318094926856936
20
-60.581369773188065
30
0
0
SPLINE
5
237
100
AcDbEntity
8
0
100
AcDbSpline
70
0
71
2
72
6
73
3
74
0
42
0.000000001
43
0.0000000001
44
0.0000000001
40
0
40
0
40
0
40
1
40
1
40
1
10
24.318094926856936
20
-60.581369773188065
30
0
10
24.610885050459732
20
-60.950758097222391
30
0
10
24.60815355506622
20
-61.625788285878969
30
0
0
SPLINE
5
238
100
AcDbEntity
8
0
100
AcDbSpline
70
0
71
2
72
6
73
3
74
0
42
0.000000001
43
0.0000000001
44
0.0000000001
40
0
40
0
40
0
40
1
40
1
40
1
10
23.402996736248141
20
-61.65717421494557
30
0
10
23.404091592397872
20
-61.386604125367001
30
0
10
23.300109474913491
20
-61.23276511667305
30
0
0
SPLINE
5
239
100
AcDbEntity
8
0
100
AcDbSpline
70
0
71
2
72
6
73
3
74
0
42
0.000000001
43
0.0000000001
44
0.0000000001
40
0
40
0
40
0
40
1
40
1
40
1
10
23.300109474913491
20
-61.23276511667305
30
0
10
23.196129741595385
20
-61.07892611762658
30
0
10
22.978557880117258
20
-61.078045717686891
30
0
0
SPLINE
5
240
100
AcDbEntity
8
0
100
AcDbSpline
70
0
71
2
72
6
73
3
74
0
42
0.000000001
43
0.0000000001
44
0.0000000001
40
0
40
0
40
0
40
1
40
1
40
1
10
22.978557880117258
20
-61.078045717686891
30
0
10
22.788880764020789
20
-61.077278193244908
30
0
10
22.671070561404207
20
-61.238588284641516
30
0
0
SPLINE
5
241
100
AcDbEntity
8
0
100
AcDbSpline
70
0
71
2
72
6
73
3
74
0
42
0.000000001
43
0.0000000001
44
0.0000000001
40
0
40
0
40
0
40
1
40
1
40
1
10
22.671070561404207
20
-61.238588284641516
30
0
10
22.553262745365764
20
-61.399897789644044
30
0
10
22.552122741428814
20
-61.681625181333715
30
0
0
LINE
5
242
100
AcDbEntity
8
0
100
AcDbLine
10
22.552122741428814
20
-61.681625181333715
30
0
11
22.551897000080878
21
-61.737412287930759
31
0
0
SPLINE
5
243
100
AcDbEntity
8
0
100
AcDbSpline
70
0
71
2
72
6
73
3
74
0
42
0.000000001
43
0.0000000001
44
0.0000000001
40
0
40
0
40
0
40
1
40
1
40
1
10
22.551897000080878
20
-61.737412287930766
30
0
10
22.550802146343013
20
-62.00798178146777
30
0
10
22.650566189370828
20
-62.17017228245156
30
0
0
SPLINE
5
244
100
AcDbEntity
8
0
100
AcDbSpline
70
0
71
2
72
6
73
3
74
0
42
0.000000001
43
0.0000000001
44
0.0000000001
40
0
40
0
40
0
40
1
40
1
40
1
10
22.650566189370828
20
-62.17017228245156
30
0
10
22.750327848232374
20
-62.332362773787871
30
0
10
22.951162862481507
20
-62.333175448428939
30
0
0
SPLINE
5
245
100
AcDbEntity
8
0
100
AcDbSpline
70
0
71
2
72
6
73
3
74
0
42
0.000000001
43
0.0000000001
44
0.0000000001
40
0
40
0
40
0
40
1
40
1
40
1
10
22.951162862481507
20
-62.333175448428939
30
0
10
23.165945249421469
20
-62.33404456081886
30
0
10
23.283815146983656
20
-62.157392945856422
30
0
0
SPLINE
5
246
100
AcDbEntity
8
0
100
AcDbSpline
70
0
71
2
72
6
73
3
74
0
42
0.000000001
43
0.0000000001
44
0.0000000001
40
0
40
0
40
0
40
1
40
1
40
1
10
23.283815146983656
20
-62.157392945856422
30
0
10
23.401687428712105
20
-61.980741340541464
30
0
10
23.402996736248141
20
-61.65717421494557
30
0
0
SPLINE
5
247
100
AcDbEntity
8
0
100
AcDbSpline
70
0
71
2
72
6
73
3
74
0
42
0.000000001
43
0.0000000001
44
0.0000000001
40
0
40
0
40
0
40
1
40
1
40
1
10
27.47811267142762
20
-62.203653852288092
30
0
10
27.476148705299831
20
-62.689005732765054
30
0
10
27.105477327410995
20
-62.953895462387578
30
0
0
SPLINE
5
248
100
AcDbEntity
8
0
100
AcDbSpline
70
0
71
2
72
6
73
3
74
0
42
0.000000001
43
0.0000000001
44
0.0000000001
40
0
40
0
40
0
40
1
40
1
40
1
10
27.105477327410995
20
-62.953895462387578
30
0
10
26.734808331276561
20
-63.218785797699127
30
0
10
26.07372432322768
20
-63.216110735230728
30
0
0
SPLINE
5
249
100
AcDbEntity
8
0
100
AcDbSpline
70
0
71
2
72
6
73
3
74
0
42
0.000000001
43
0.0000000001
44
0.0000000001
40
0
40
0
40
0
40
1
40
1
40
1
10
26.07372432322768
20
-63.216110735230728
30
0
10
25.881257732593042
20
-63.215331923238978
30
0
10
25.598293624507342
20
-63.175134824075954
30
0
0
SPLINE
5
250
100
AcDbEntity
8
0
100
AcDbSpline
70
0
71
2
72
6
73
3
74
0
42
0.000000001
43
0.0000000001
44
0.0000000001
40
0
40
0
40
0
40
1
40
1
40
1
10
25.598293624507342
20
-63.175134824075954
30
0
10
25.315329516421635
20
-63.13493772491293
30
0
10
25.13703603982577
20
-63.078428244072988
30
0
0
LINE
5
251
100
AcDbEntity
8
0
100
AcDbLine
10
25.13703603982577
20
-63.078428244072988
30
0
11
25.140410901437527
21
-62.244403967156636
31
0
0
SPLINE
5
252
100
AcDbEntity
8
0
100
AcDbSpline
70
0
71
2
72
6
73
3
74
0
42
0.000000001
43
0.0000000001
44
0.0000000001
40
0
40
0
40
0
40
1
40
1
40
1
10
25.140410901437527
20
-62.244403967156629
30
0
10
25.666654392994271
20
-62.480845349549057
30
0
10
26.020905738509988
20
-62.482278820132571
30
0
0
SPLINE
5
253
100
AcDbEntity
8
0
100
AcDbSpline
70
0
71
2
72
6
73
3
74
0
42
0.000000001
43
0.0000000001
44
0.0000000001
40
0
40
0
40
0
40
1
40
1
40
1
10
26.020905738509988
20
-62.482278820132571
30
0
10
26.369578134949371
20
-62.483689715616535
30
0
10
26.37031180156578
20
-62.302379831051425
30
0
0
SPLINE
5
254
100
AcDbEntity
8
0
100
AcDbSpline
70
0
71
2
72
6
73
3
74
0
42
0.000000001
43
0.0000000001
44
0.0000000001
40
0
40
0
40
0
40
1
40
1
40
1
10
26.37031180156578
20
-62.302379831051425
30
0
10
26.370616553350246
20
-62.227066998728787
30
0
10
26.289921700795091
20
-62.17792565313971
30
0
0
SPLINE
5
255
100
AcDbEntity
8
0
100
AcDbSpline
70
0
71
2
72
6
73
3
74
0
42
0.000000001
43
0.0000000001
44
0.0000000001
40
0
40
0
40
0
40
1
40
1
40
1
10
26.289921700795091
20
-62.17792565313971
30
0
10
26.209226850651799
20
-62.128783711509065
30
0
10
25.866596175946267
20
-62.013031107350812
30
0
0
SPLINE
5
256
100
AcDbEntity
8
0
100
AcDbSpline
70
0
71
2
72
6
73
3
74
0
42
0.000000001
43
0.0000000001
44
0.0000000001
40
0
40
0
40
0
40
1
40
1
40
1
10
25.866596175946267
20
-62.013031107350812
30
0
10
25.487727291510392
20
-61.891552825616678
30
0
10
25.315586025567942
20
-61.692807477114869
30
0
0
SPLINE
5
257
100
AcDbEntity
8
0
100
AcDbSpline
70
0
71
2
72
6
73
3
74
0
42
0.000000001
43
0.0000000001
44
0.0000000001
40
0
40
0
40
0
40
1
40
1
40
1
10
25.315586025567942
20
-61.692807477114869
30
0
10
25.143447146203634
20
-61.494061542218972
30
0
10
25.144733881051991
20
-61.17607276965785
30
0
0
SPLINE
5
258
100
AcDbEntity
8
0
100
AcDbSpline
70
0
71
2
72
6
73
3
74
0
42
0.000000001
43
0.0000000001
44
0.0000000001
40
0
40
0
40
0
40
1
40
1
40
1
10
25.144733881051991
20
-61.17607276965785
30
0
10
25.146528538756957
20
-60.732561815170229
30
0
10
25.500429211591225
20
-60.475971591780457
30
0
0
SPLINE
5
259
100
AcDbEntity
8
0
100
AcDbSpline
70
0
71
2
72
6
73
3
74
0
42
0.000000001
43
0.0000000001
44
0.0000000001
40
0
40
0
40
0
40
1
40
1
40
1
10
25.500429211591225
20
-60.475971591780457
30
0
10
25.854329879601753
20
-60.219382560473818
30
0
10
26.493095707179037
20
-60.221967312896574
30
0
0
SPLINE
5
260
100
AcDbEntity
8
0
100
AcDbSpline
70
0
71
2
72
6
73
3
74
0
42
0.000000001
43
0.0000000001
44
0.0000000001
40
0
40
0
40
0
40
1
40
1
40
1
10
26.493095707179037
20
-60.221967312896574
30
0
10
26.866873374461917
20
-60.223479796328476
30
0
10
27.28484005021933
20
-60.333958801648308
30
0
0
LINE
5
261
100
AcDbEntity
8
0
100
AcDbLine
10
27.28484005021933
20
-60.333958801648308
30
0
11
27.281600639204822
21
-61.134509384106664
31
0
0
SPLINE
5
262
100
AcDbEntity
8
0
100
AcDbSpline
70
0
71
2
72
6
73
3
74
0
42
0.000000001
43
0.0000000001
44
0.0000000001
40
0
40
0
40
0
40
1
40
1
40
1
10
27.281600639204825
20
-61.134509384106678
30
0
10
27.106173263417382
20
-61.058485455443417
30
0
10
26.89717537838029
20
-61.007430174238237
30
0
0
SPLINE
5
263
100
AcDbEntity
8
0
100
AcDbSpline
70
0
71
2
72
6
73
3
74
0
42
0.000000001
43
0.0000000001
44
0.0000000001
40
0
40
0
40
0
40
1
40
1
40
1
10
26.89717537838029
20
-61.007430174238237
30
0
10
26.688172725010652
20
-60.956374873738085
30
0
10
26.545916676063005
20
-60.955799237642211
30
0
0
SPLINE
5
264
100
AcDbEntity
8
0
100
AcDbSpline
70
0
71
2
72
6
73
3
74
0
42
0.000000001
43
0.0000000001
44
0.0000000001
40
0
40
0
40
0
40
1
40
1
40
1
10
26.545916676063005
20
-60.955799237642211
30
0
10
26.428761129626306
20
-60.955325170199316
30
0
10
26.358868631877247
20
-60.994093846512136
30
0
0
SPLINE
5
265
100
AcDbEntity
8
0
100
AcDbSpline
70
0
71
2
72
6
73
3
74
0
42
0.000000001
43
0.0000000001
44
0.0000000001
40
0
40
0
40
0
40
1
40
1
40
1
10
26.358868631877247
20
-60.994093846512136
30
0
10
26.288976131716314
20
-61.03286311886653
30
0
10
26.288693952619518
20
-61.102597598154411
30
0
0
SPLINE
5
266
100
AcDbEntity
8
0
100
AcDbSpline
70
0
71
2
72
6
73
3
74
0
42
0.000000001
43
0.0000000001
44
0.0000000001
40
0
40
0
40
0
40
1
40
1
40
1
10
26.288693952619518
20
-61.102597598154411
30
0
10
26.288366623323643
20
-61.183489975594945
30
0
10
26.363476885439457
20
-61.234002887312002
30
0
0
SPLINE
5
267
100
AcDbEntity
8
0
100
AcDbSpline
70
0
71
2
72
6
73
3
74
0
42
0.000000001
43
0.0000000001
44
0.0000000001
40
0
40
0
40
0
40
1
40
1
40
1
10
26.363476885439457
20
-61.234002887312002
30
0
10
26.438587142731528
20
-61.284516991112184
30
0
10
26.664245248727362
20
-61.355165732989072
30
0
0
SPLINE
5
268
100
AcDbEntity
8
0
100
AcDbSpline
70
0
71
2
72
6
73
3
74
0
42
0.000000001
43
0.0000000001
44
0.0000000001
40
0
40
0
40
0
40
1
40
1
40
1
10
26.664245248727362
20
-61.355165732989072
30
0
10
27.101656854061005
20
-61.485248871193846
30
0
10
27.290523679682682
20
-61.686851419532438
30
0
0
SPLINE
5
269
100
AcDbEntity
8
0
100
AcDbSpline
70
0
71
2
72
6
73
3
74
0
42
0.000000001
43
0.0000000001
44
0.0000000001
40
0
40
0
40
0
40
1
40
1
40
1
10
27.290523679682682
20
-61.686851419532438
30
0
10
27.479388118726206
20
-61.888454554265131
30
0
10
27.47811267142762
20
-62.203653852288092
30
0
0
ENDSEC
0
SECTION
2
OBJECTS
0
DICTIONARY
5
C
100
AcDbDictionary
3
ACAD_GROUP
350
D
3
ACAD_MLINESTYLE
350
17
0
DICTIONARY
5
D
100
AcDbDictionary
0
DICTIONARY
5
1A
330
C
100
AcDbDictionary
0
DICTIONARY
5
17
100
AcDbDictionary
0
ENDSEC
0
EOF
